<svg width="412" height="410" viewBox="0 0 412 410" fill="none" xmlns="http://www.w3.org/2000/svg">
<g opacity="0.05">
<path d="M326.196 0.118409L411.95 319.717L261.816 409.829L86.6767 406.754L0.922285 87.1549L326.196 0.118409ZM292.184 59.0545L59.8855 121.213L123.771 359.309L248.85 361.507L356.07 297.151L292.184 59.0545Z" fill="white"/>
<path d="M103.384 148.02L262.385 105.474L303.825 259.916L157.747 299.003L149.847 269.56L157.653 267.471L136.655 189.212L183.144 176.773L204.142 255.031L249.43 242.913L223.791 147.356L111.283 177.461L103.384 148.02Z" fill="white"/>
<path d="M173.75 327.442L220.239 315.003L214.295 292.851L167.806 305.29L173.75 327.442Z" fill="#D32A2A"/>
</g>
</svg>
