<svg width="502" height="302" viewBox="0 0 502 302" fill="none" xmlns="http://www.w3.org/2000/svg">
<g filter="url(#filter0_n_4_52)">
<rect x="1.5415" y="0.101105" width="500" height="300" rx="13" transform="rotate(0.206236 1.5415 0.101105)" fill="url(#paint0_linear_4_52)"/>
<rect x="2.0397" y="0.602901" width="499" height="299" rx="12.5" transform="rotate(0.206236 2.0397 0.602901)" stroke="url(#paint1_linear_4_52)"/>
<path d="M107.023 63.2499L169.28 63.4739L169.043 129.338L165.558 130.322L136.795 138.449L135.484 138.82L134.175 138.44L105.472 130.106L101.995 129.097L102.232 63.2326L107.023 63.2499ZM159.663 73.0218L111.78 72.8494L111.603 121.917L135.52 128.861L159.486 122.09L159.663 73.0218Z" fill="#774D32"/>
<path d="M118.736 80.2675L151.511 80.3855L151.396 112.213L121.285 112.105L121.307 106.037L122.916 106.043L122.974 89.9151L132.557 89.9496L132.499 106.077L141.834 106.111L141.905 86.4183L118.714 86.3348L118.736 80.2675Z" fill="#774D32"/>
<path d="M122.872 118.401L132.454 118.435L132.471 113.87L122.888 113.836L122.872 118.401Z" fill="#774D32"/>
<path d="M202.518 91.3428C208.297 91.3636 210.26 94.5485 210.239 100.52C210.217 106.444 208.276 110.53 202.594 110.509L198.501 110.495L198.557 94.892L188.972 94.8575L188.916 110.46L185.838 110.449L185.861 116.518L202.475 116.578C214.515 116.621 220.171 110.67 220.207 100.556C220.245 90.1544 214.194 85.316 202.54 85.274L185.973 85.2144L185.907 91.283L202.518 91.3428Z" fill="#774D32"/>
<path d="M258.075 116.944L258.096 111.084L254.987 111.073L255.056 91.9055L258.165 91.9167L258.187 85.8494L246.418 85.8071L234.391 103.273L234.248 103.272L234.294 91.8308L237.403 91.842L237.425 85.7747L222.213 85.7199L222.191 91.7872L225.204 91.7981L225.135 110.966L222.122 110.955L222.101 116.815L234.151 116.858L246.179 99.2468L245.897 111.04L242.98 111.03L242.958 116.89L258.075 116.944ZM260.706 116.954C260.706 116.954 261.993 118.011 265.055 118.022C272.326 118.048 277.65 112.305 277.827 91.9875L282.471 92.0042L282.398 111.172L278.954 111.159L278.968 117.02L295.053 117.077L295.043 111.217L291.919 111.206L291.988 92.0384L295.143 92.0498L295.165 85.9825L265.267 85.8749L264.814 91.9406L269.311 91.9568C268.758 106.701 266.521 109.56 263.077 109.547C261.738 109.542 261.068 109.206 261.068 109.206L260.706 116.954ZM333.469 117.216L333.49 111.356L330.332 111.344L330.401 92.1767L333.559 92.1881L333.58 86.1208L298.803 85.9956L298.781 92.0629L301.793 92.0737L301.724 111.241L298.712 111.231L298.691 117.091L314.333 117.147L314.354 111.287L311.245 111.276L311.314 92.108L320.881 92.1424L320.812 111.31L317.751 111.299L317.73 117.159L333.469 117.216ZM351.212 92.1636L351.234 86.1844L335.59 86.128L335.568 92.1953L339.396 92.2091L349.236 109.427C347.939 110.905 346.695 111.284 345.066 111.278L344.365 107.066L337.904 107.472L338.347 117.185C338.347 117.185 340.066 118.244 343.607 118.257C351.548 118.285 355.542 115.963 358.998 108.314L366.232 92.3057L369.319 92.3159L369.363 86.2496L355.874 86.2011L355.468 92.6096L357.285 92.7121L354.336 100.978L354.098 100.977L349.729 92.3975L351.212 92.1636ZM384.412 92.3711C387.138 92.3809 389.383 93.6409 389.37 97.2768C389.357 100.865 387.389 102.149 384.377 102.139L382.702 102.133L382.725 95.9301L373.826 95.898L373.77 111.501L370.757 111.49L370.736 117.35L386.665 117.407L386.686 111.547L382.668 111.508L382.679 108.495L386.172 108.508C392.103 108.529 399.196 104.823 399.225 96.7386C399.252 89.3706 394.385 86.3397 386.012 86.3095L370.848 86.255L370.826 92.3222L384.412 92.3711Z" fill="#774D32"/>
<path d="M152.339 183.84L163.811 183.881L163.755 199.475L161.193 199.466L161.24 186.323L154.891 186.3L154.844 199.443L152.282 199.433L152.339 183.84ZM176.151 198.116C175.019 199.241 173.628 199.8 171.98 199.794C170.331 199.788 168.945 199.219 167.82 198.086C166.681 196.938 166.114 195.548 166.12 193.914C166.126 192.281 166.702 190.894 167.85 189.755C168.983 188.63 170.373 188.071 172.022 188.077C173.67 188.083 175.057 188.652 176.181 189.785C177.321 190.932 177.887 192.323 177.882 193.956C177.876 195.59 177.299 196.977 176.151 198.116ZM168.526 193.923C168.522 194.933 168.853 195.773 169.519 196.444C170.185 197.114 171.008 197.451 171.988 197.455C172.968 197.458 173.794 197.127 174.464 196.461C175.135 195.796 175.472 194.958 175.476 193.948C175.479 192.938 175.148 192.098 174.482 191.427C173.817 190.756 172.994 190.419 172.013 190.416C171.033 190.412 170.208 190.743 169.537 191.409C168.866 192.075 168.529 192.913 168.526 193.923ZM189.444 188.429L189.412 197.295L190.904 197.3L190.885 202.557L188.524 202.549L188.535 199.564L180.894 199.536L180.883 202.521L178.522 202.513L178.541 197.256L179.9 197.261C180.586 196.313 180.933 194.97 180.939 193.232L180.956 188.398L189.444 188.429ZM182.551 197.27L187.05 197.286L187.074 190.626L183.31 190.612L183.3 193.241C183.294 194.845 183.045 196.188 182.551 197.27ZM201.271 190.053L201.277 188.472L203.682 188.48L203.642 199.618L201.236 199.61L201.242 198.006C200.332 199.265 199.03 199.891 197.337 199.885C195.807 199.88 194.503 199.311 193.423 198.178C192.342 197.046 191.805 195.655 191.811 194.007C191.817 192.358 192.364 190.972 193.453 189.847C194.541 188.722 195.85 188.162 197.379 188.168C199.072 188.174 200.369 188.802 201.271 190.053ZM195.21 196.581C195.876 197.251 196.714 197.589 197.724 197.592C198.734 197.596 199.574 197.265 200.245 196.599C200.916 195.918 201.253 195.065 201.256 194.041C201.26 193.016 200.929 192.168 200.263 191.498C199.597 190.812 198.76 190.467 197.75 190.464C196.74 190.46 195.9 190.799 195.229 191.479C194.558 192.145 194.221 192.991 194.217 194.015C194.214 195.025 194.545 195.88 195.21 196.581ZM212.792 188.223C214.307 188.229 215.611 188.805 216.706 189.953C217.786 191.085 218.323 192.468 218.317 194.102C218.312 195.75 217.764 197.137 216.676 198.262C215.588 199.387 214.279 199.946 212.75 199.941C211.071 199.935 209.774 199.306 208.858 198.055L208.836 204.092L206.43 204.084L206.487 188.49L208.892 188.499L208.887 190.103C209.797 188.844 211.099 188.217 212.792 188.223ZM209.866 196.633C210.531 197.304 211.369 197.641 212.379 197.645C213.389 197.649 214.229 197.317 214.9 196.652C215.571 195.971 215.908 195.118 215.912 194.093C215.915 193.069 215.584 192.221 214.918 191.55C214.252 190.865 213.415 190.52 212.405 190.517C211.395 190.513 210.555 190.851 209.884 191.532C209.213 192.198 208.876 193.043 208.872 194.068C208.869 195.078 209.2 195.933 209.866 196.633ZM229.906 198.309C228.773 199.434 227.382 199.993 225.734 199.987C224.086 199.982 222.699 199.412 221.574 198.279C220.435 197.132 219.868 195.741 219.874 194.108C219.88 192.474 220.457 191.088 221.604 189.948C222.737 188.824 224.128 188.264 225.776 188.27C227.425 188.276 228.811 188.845 229.936 189.978C231.075 191.126 231.642 192.516 231.636 194.15C231.63 195.784 231.053 197.17 229.906 198.309ZM222.28 194.116C222.276 195.126 222.607 195.966 223.273 196.637C223.939 197.308 224.762 197.645 225.742 197.648C226.723 197.652 227.548 197.321 228.219 196.655C228.889 195.989 229.227 195.151 229.23 194.141C229.234 193.131 228.903 192.291 228.237 191.62C227.571 190.95 226.748 190.613 225.768 190.609C224.788 190.606 223.962 190.937 223.291 191.603C222.621 192.269 222.284 193.106 222.28 194.116ZM240.368 193.714L240.386 188.612L242.792 188.621L242.752 199.759L240.346 199.75L240.359 195.986C239.482 196.309 238.546 196.469 237.551 196.466C236.14 196.461 235.042 196.115 234.258 195.429C233.473 194.728 233.083 193.724 233.088 192.418L233.102 188.586L235.507 188.595L235.494 192.204C235.49 193.54 236.282 194.211 237.871 194.217C238.777 194.22 239.609 194.052 240.368 193.714ZM253.092 193.091L253.108 188.658L255.513 188.667L255.473 199.805L253.067 199.796L253.083 195.363L247.982 195.345L247.966 199.778L245.56 199.769L245.6 188.631L248.006 188.64L247.99 193.073L253.092 193.091ZM267.121 190.29L267.126 188.709L269.532 188.717L269.492 199.855L267.086 199.847L267.092 198.243C266.181 199.502 264.88 200.128 263.187 200.122C261.657 200.117 260.352 199.548 259.272 198.415C258.192 197.283 257.655 195.892 257.661 194.244C257.667 192.595 258.214 191.209 259.302 190.084C260.39 188.959 261.699 188.399 263.229 188.405C264.922 188.411 266.219 189.039 267.121 190.29ZM261.06 196.818C261.726 197.488 262.564 197.826 263.574 197.829C264.584 197.833 265.424 197.502 266.095 196.836C266.765 196.155 267.102 195.302 267.106 194.278C267.11 193.253 266.779 192.405 266.113 191.735C265.447 191.049 264.609 190.704 263.599 190.701C262.589 190.697 261.749 191.036 261.078 191.716C260.408 192.382 260.071 193.228 260.067 194.252C260.063 195.262 260.394 196.117 261.06 196.818ZM275.99 188.74L280.957 188.758L280.917 199.896L278.556 199.888L278.569 196.146L277.233 196.141L274.39 199.873L271.561 199.863L274.583 195.908C273.811 195.653 273.189 195.205 272.716 194.565C272.258 193.925 272.03 193.211 272.033 192.424C272.037 191.399 272.404 190.532 273.134 189.822C273.865 189.097 274.816 188.736 275.99 188.74ZM276.104 194.065L278.577 194.074L278.588 190.933L276.115 190.924C275.61 190.922 275.194 191.069 274.866 191.365C274.553 191.646 274.396 192.024 274.394 192.499C274.393 192.975 274.547 193.354 274.858 193.637C275.184 193.921 275.599 194.063 276.104 194.065ZM294.074 194.263L299.132 199.962L296.259 199.952L291.71 194.789L291.692 199.935L289.286 199.927L289.326 188.789L291.732 188.797L291.714 193.72L296.054 188.813L298.994 188.823L294.074 194.263ZM308.714 190.44L308.72 188.858L311.126 188.867L311.086 200.005L308.68 199.996L308.686 198.393C307.775 199.652 306.474 200.278 304.781 200.272C303.251 200.266 301.946 199.697 300.866 198.565C299.786 197.432 299.249 196.042 299.255 194.393C299.261 192.745 299.808 191.358 300.896 190.234C301.984 189.109 303.293 188.549 304.823 188.555C306.516 188.561 307.813 189.189 308.714 190.44ZM302.654 196.967C303.32 197.638 304.158 197.975 305.168 197.979C306.177 197.983 307.018 197.651 307.688 196.986C308.359 196.305 308.696 195.452 308.7 194.427C308.704 193.403 308.373 192.555 307.707 191.884C307.041 191.199 306.203 190.854 305.193 190.85C304.183 190.847 303.343 191.185 302.672 191.866C302.002 192.532 301.664 193.377 301.661 194.402C301.657 195.412 301.988 196.267 302.654 196.967ZM320.235 188.61C321.75 188.616 323.055 189.192 324.15 190.34C325.23 191.472 325.767 192.855 325.761 194.489C325.755 196.137 325.208 197.524 324.12 198.649C323.032 199.773 321.723 200.333 320.193 200.327C318.515 200.321 317.218 199.693 316.302 198.442L316.28 204.479L313.874 204.47L313.93 188.877L316.336 188.886L316.33 190.49C317.241 189.231 318.542 188.604 320.235 188.61ZM317.309 197.02C317.975 197.691 318.813 198.028 319.823 198.032C320.833 198.035 321.673 197.704 322.343 197.038C323.014 196.358 323.351 195.505 323.355 194.48C323.359 193.455 323.028 192.608 322.362 191.937C321.696 191.251 320.858 190.907 319.848 190.903C318.838 190.9 317.998 191.238 317.327 191.919C316.657 192.585 316.32 193.43 316.316 194.455C316.312 195.465 316.643 196.32 317.309 197.02ZM326.346 188.922L336.036 188.957L336.028 191.273L332.397 191.26L332.365 200.082L329.959 200.073L329.991 191.252L326.337 191.238L326.346 188.922ZM346.044 190.574L346.05 188.993L348.456 189.001L348.416 200.139L346.01 200.131L346.016 198.527C345.105 199.786 343.804 200.412 342.111 200.406C340.581 200.401 339.276 199.832 338.196 198.699C337.116 197.567 336.579 196.176 336.585 194.528C336.591 192.879 337.138 191.493 338.226 190.368C339.314 189.243 340.623 188.684 342.153 188.689C343.846 188.695 345.143 189.324 346.044 190.574ZM339.984 197.102C340.65 197.772 341.488 198.11 342.498 198.113C343.507 198.117 344.348 197.786 345.018 197.12C345.689 196.439 346.026 195.586 346.03 194.562C346.034 193.537 345.703 192.689 345.037 192.019C344.371 191.333 343.533 190.989 342.523 190.985C341.513 190.981 340.673 191.32 340.002 192.001C339.332 192.666 338.994 193.512 338.991 194.536C338.987 195.546 339.318 196.401 339.984 197.102Z" fill="#774D32"/>
<path d="M185.628 228.118L187.589 228.125C189.074 228.13 190.327 228.58 191.348 229.475C192.37 230.355 192.878 231.574 192.872 233.134C192.867 234.693 192.335 235.916 191.278 236.803C190.235 237.691 188.941 238.132 187.397 238.126C186.134 238.122 185.036 237.828 184.103 237.245C183.169 236.663 182.504 235.836 182.107 234.766L184.317 233.504C184.742 234.916 185.772 235.625 187.406 235.631C188.282 235.634 188.981 235.414 189.502 234.97C190.038 234.512 190.308 233.897 190.311 233.124C190.313 232.367 190.056 231.765 189.537 231.317C189.019 230.855 188.33 230.622 187.468 230.619L182.924 230.603L183.555 222.229L192.243 222.26L192.235 224.666L185.908 224.643L185.628 228.118ZM204.742 235.983C203.668 237.45 202.165 238.179 200.234 238.172C198.319 238.165 196.814 237.425 195.72 235.951C194.656 234.477 194.129 232.514 194.137 230.064C194.146 227.614 194.688 225.655 195.763 224.189C196.867 222.723 198.377 221.993 200.293 222C202.223 222.007 203.72 222.747 204.784 224.221C205.863 225.681 206.398 227.643 206.389 230.108C206.381 232.573 205.831 234.532 204.742 235.983ZM200.243 235.677C201.402 235.682 202.287 235.202 202.899 234.239C203.512 233.276 203.821 231.896 203.828 230.099C203.834 228.302 203.535 226.92 202.929 225.952C202.324 224.985 201.442 224.499 200.284 224.495C199.14 224.491 198.255 224.97 197.627 225.933C197.015 226.896 196.706 228.276 196.699 230.073C196.693 231.87 196.992 233.252 197.598 234.22C198.218 235.187 199.1 235.673 200.243 235.677ZM218.773 236.034C217.699 237.5 216.196 238.23 214.266 238.223C212.35 238.216 210.845 237.475 209.752 236.001C208.688 234.527 208.16 232.565 208.169 230.114C208.178 227.664 208.719 225.706 209.794 224.239C210.898 222.773 212.408 222.043 214.324 222.05C216.255 222.057 217.752 222.798 218.816 224.272C219.895 225.731 220.43 227.693 220.421 230.159C220.412 232.624 219.863 234.582 218.773 236.034ZM214.275 235.728C215.433 235.732 216.318 235.253 216.931 234.289C217.543 233.326 217.853 231.946 217.859 230.149C217.866 228.352 217.566 226.97 216.961 226.003C216.355 225.035 215.473 224.549 214.315 224.545C213.171 224.541 212.286 225.021 211.659 225.984C211.047 226.947 210.737 228.327 210.731 230.124C210.724 231.921 211.024 233.303 211.629 234.27C212.249 235.238 213.131 235.724 214.275 235.728ZM232.805 236.084C231.73 237.551 230.228 238.28 228.297 238.273C226.381 238.266 224.877 237.526 223.783 236.052C222.719 234.578 222.191 232.615 222.2 230.165C222.209 227.715 222.751 225.756 223.825 224.29C224.93 222.824 226.44 222.094 228.355 222.101C230.286 222.108 231.783 222.848 232.847 224.322C233.926 225.782 234.461 227.744 234.452 230.209C234.443 232.674 233.894 234.633 232.805 236.084ZM228.306 235.778C229.464 235.783 230.35 235.303 230.962 234.34C231.575 233.377 231.884 231.997 231.89 230.2C231.897 228.403 231.597 227.021 230.992 226.053C230.387 225.086 229.505 224.6 228.346 224.596C227.203 224.592 226.317 225.071 225.69 226.034C225.078 226.997 224.769 228.377 224.762 230.174C224.756 231.971 225.055 233.353 225.66 234.321C226.281 235.288 227.163 235.774 228.306 235.778ZM247.541 238.343C245.863 238.337 244.462 237.767 243.337 236.634C242.227 235.487 241.675 234.096 241.681 232.463C241.687 230.799 242.249 229.413 243.367 228.303C244.5 227.179 245.905 226.619 247.583 226.625C248.667 226.629 249.654 226.893 250.543 227.416C251.432 227.939 252.098 228.639 252.541 229.517L250.465 230.712C250.214 230.177 249.829 229.76 249.311 229.461C248.807 229.147 248.221 228.989 247.553 228.987C246.572 228.983 245.747 229.314 245.076 229.98C244.42 230.661 244.091 231.491 244.087 232.471C244.084 233.452 244.407 234.284 245.058 234.97C245.724 235.641 246.547 235.978 247.527 235.981C248.181 235.984 248.768 235.837 249.289 235.542C249.825 235.232 250.227 234.81 250.496 234.277L252.564 235.465C252.085 236.354 251.392 237.057 250.484 237.574C249.592 238.09 248.61 238.346 247.541 238.343ZM263.547 236.707C262.414 237.832 261.024 238.391 259.375 238.385C257.727 238.379 256.34 237.81 255.216 236.677C254.076 235.53 253.51 234.139 253.516 232.505C253.521 230.872 254.098 229.485 255.246 228.346C256.379 227.221 257.769 226.662 259.418 226.668C261.066 226.674 262.453 227.243 263.577 228.376C264.717 229.524 265.283 230.914 265.277 232.548C265.272 234.181 264.695 235.568 263.547 236.707ZM255.921 232.514C255.918 233.524 256.249 234.364 256.915 235.035C257.581 235.706 258.404 236.043 259.384 236.046C260.364 236.05 261.189 235.719 261.86 235.053C262.531 234.387 262.868 233.549 262.872 232.539C262.875 231.529 262.544 230.689 261.878 230.018C261.212 229.348 260.389 229.01 259.409 229.007C258.429 229.003 257.604 229.335 256.933 230C256.262 230.666 255.925 231.504 255.921 232.514ZM276.383 227.019L278.834 227.027L278.794 238.165L276.455 238.157L276.481 230.828L273.255 235.918L272.965 235.917L269.798 230.826L269.772 238.133L267.433 238.125L267.473 226.986L269.923 226.995L273.135 232.153L276.383 227.019ZM291.001 236.806C289.868 237.931 288.478 238.49 286.829 238.484C285.181 238.478 283.794 237.909 282.67 236.776C281.53 235.628 280.963 234.238 280.969 232.604C280.975 230.971 281.552 229.584 282.7 228.445C283.832 227.32 285.223 226.761 286.871 226.767C288.52 226.773 289.906 227.342 291.031 228.475C292.17 229.622 292.737 231.013 292.731 232.647C292.725 234.28 292.148 235.667 291.001 236.806ZM283.375 232.613C283.371 233.623 283.703 234.463 284.368 235.134C285.034 235.804 285.857 236.141 286.837 236.145C287.818 236.149 288.643 235.817 289.314 235.151C289.984 234.486 290.322 233.648 290.325 232.638C290.329 231.628 289.998 230.788 289.332 230.117C288.666 229.446 287.843 229.109 286.863 229.106C285.883 229.102 285.057 229.433 284.387 230.099C283.716 230.765 283.379 231.603 283.375 232.613ZM302.418 231.545L302.434 227.112L304.839 227.121L304.799 238.259L302.394 238.25L302.409 233.817L297.308 233.799L297.292 238.232L294.886 238.223L294.927 227.085L297.332 227.094L297.316 231.527L302.418 231.545ZM309.967 234.201L315.695 227.16L317.544 227.167L317.504 238.305L315.142 238.296L315.168 231.212L309.44 238.276L307.591 238.269L307.631 227.131L309.992 227.14L309.967 234.201Z" fill="#774D32"/>
</g>
<defs>
<filter id="filter0_n_4_52" x="0.46167" y="0.101105" width="501.077" height="301.798" filterUnits="userSpaceOnUse" color-interpolation-filters="sRGB">
<feFlood flood-opacity="0" result="BackgroundImageFix"/>
<feBlend mode="normal" in="SourceGraphic" in2="BackgroundImageFix" result="shape"/>
<feTurbulence type="fractalNoise" baseFrequency="0.66666668653488159 0.66666668653488159" stitchTiles="stitch" numOctaves="3" result="noise" seed="3332" />
<feColorMatrix in="noise" type="luminanceToAlpha" result="alphaNoise" />
<feComponentTransfer in="alphaNoise" result="coloredNoise1">
<feFuncA type="discrete" tableValues="1 1 1 1 1 1 1 1 1 1 1 1 1 1 1 1 1 1 1 1 1 1 1 1 1 1 1 1 1 1 1 1 1 1 1 1 1 1 1 1 1 1 1 1 1 1 1 1 1 1 1 0 0 0 0 0 0 0 0 0 0 0 0 0 0 0 0 0 0 0 0 0 0 0 0 0 0 0 0 0 0 0 0 0 0 0 0 0 0 0 0 0 0 0 0 0 0 0 0 0 "/>
</feComponentTransfer>
<feComposite operator="in" in2="shape" in="coloredNoise1" result="noise1Clipped" />
<feFlood flood-color="rgba(0, 0, 0, 0.05)" result="color1Flood" />
<feComposite operator="in" in2="noise1Clipped" in="color1Flood" result="color1" />
<feMerge result="effect1_noise_4_52">
<feMergeNode in="shape" />
<feMergeNode in="color1" />
</feMerge>
</filter>
<linearGradient id="paint0_linear_4_52" x1="1.5415" y1="0.101105" x2="264.742" y2="444.132" gradientUnits="userSpaceOnUse">
<stop stop-color="#FFE0A9"/>
<stop offset="0.5" stop-color="#DFC686"/>
<stop offset="1" stop-color="#BA9C63"/>
</linearGradient>
<linearGradient id="paint1_linear_4_52" x1="1.5415" y1="0.101105" x2="501.541" y2="300.101" gradientUnits="userSpaceOnUse">
<stop stop-color="white" stop-opacity="0.2"/>
<stop offset="1" stop-opacity="0.1"/>
</linearGradient>
</defs>
</svg>
