<svg width="500" height="300" viewBox="0 0 500 300" fill="none" xmlns="http://www.w3.org/2000/svg">
<g filter="url(#filter0_n_4_64)">
<rect width="500" height="300" rx="13" fill="url(#paint0_linear_4_64)"/>
<rect x="0.5" y="0.5" width="499" height="299" rx="12.5" stroke="url(#paint1_linear_4_64)"/>
<path d="M125.473 135.56V141.086H149.098V134.771H134.318L148.729 120.169V114.644H125.842V120.958H139.883L125.473 135.56ZM289.009 86.1103C289.009 89.0394 288.392 91.6097 287.157 93.8199C285.922 96.0304 284.221 97.7484 282.054 98.9731C279.887 100.198 277.527 101.104 274.976 101.69C272.424 102.275 269.694 102.569 266.786 102.569H260.227V89.1188H265.091C271.472 89.1188 275.018 88.2736 274.871 83.8756C274.714 79.2084 271.615 78.5995 264.975 78.5995H257.156L257.144 86.549H243.562L243.576 76.0516L249.06 69.5246L257.156 61.32V68.5334H264.728C268.012 68.5334 272.996 67.3662 272.996 63.2055C272.996 59.5306 270.016 57.8817 264.036 57.8817H259.441V46.0023H266.786C269.255 46.0023 271.574 46.2286 273.741 46.6812C275.909 47.1344 278.007 47.8796 280.038 48.9187C282.068 49.9571 283.673 51.4751 284.853 53.4729C286.032 55.4704 286.622 57.827 286.622 60.5433C286.622 63.5796 285.772 66.136 284.07 68.2138C282.37 70.2907 280.038 71.809 277.074 72.7678V72.9274C280.586 73.5136 283.453 74.9646 285.675 77.2817C287.898 79.5986 289.009 82.5415 289.009 86.1103ZM207.282 90.787V102.569H257.659V89.1036H226.144L256.874 57.9653V46.1835H208.069V59.6487H238.012L207.282 90.787ZM175.339 129.246C175.339 123.603 172.39 120.564 164.171 120.564C161.37 120.564 157.722 120.919 155.178 121.55V127.47C157.722 126.681 161.37 126.286 163.987 126.286C168.852 126.286 169.368 127.47 169.442 129.562C167.709 129.049 165.756 128.812 163.287 128.812C155.621 128.812 153.151 131.535 153.151 134.85V135.245C153.151 138.757 155.436 141.875 163.397 141.875C166.788 141.875 169.405 141.244 171.874 139.862L173.864 141.086H175.339V129.246ZM164.024 136.942C159.343 136.942 159.048 136.231 159.048 135.284C159.048 134.495 159.27 133.548 163.655 133.548C165.94 133.548 167.783 133.785 169.442 134.258V136.113C167.783 136.666 166.014 136.942 164.024 136.942ZM194.503 120.84C193.582 120.682 192.55 120.564 191.407 120.564C188.201 120.564 185.584 121.235 183.226 122.616L181.235 121.353H179.761V141.086H185.658V127.312C187.28 126.76 189.049 126.483 191.076 126.483C192.292 126.483 193.434 126.602 194.503 126.799V120.84ZM198.189 132.009C198.189 137.455 200.474 141.875 208.729 141.875H209.761C218.017 141.875 220.302 137.455 220.302 132.009V130.43C220.302 124.984 218.017 120.564 209.761 120.564H208.729C200.474 120.564 198.189 124.984 198.189 130.43V132.009ZM204.086 131.219C204.086 128.654 204.086 126.286 209.245 126.286C214.405 126.286 214.405 128.654 214.405 131.219C214.405 133.785 214.405 136.153 209.245 136.153C204.086 136.153 204.086 133.785 204.086 131.219ZM234.676 114.644V141.086C238.877 141.599 243.705 141.875 248.165 141.875H249.197C258.042 141.875 260.475 138.323 260.475 133.982V133.193C260.475 130.864 259.222 128.772 255.352 127.825C258.669 126.878 259.737 124.866 259.737 122.537V121.747C259.737 117.406 257.453 113.855 249.197 113.855H248.165C243.705 113.855 238.877 114.131 234.676 114.644ZM248.312 120.169C253.656 120.169 253.841 121.235 253.841 122.537C253.841 123.879 253.841 124.905 247.87 124.905H241.31V120.524C243.742 120.287 246.506 120.169 248.312 120.169ZM247.87 131.219C254.578 131.219 254.578 132.088 254.578 133.193C254.578 134.495 254.32 135.56 248.423 135.56C246.469 135.56 243.742 135.442 241.31 135.205V131.219H247.87ZM287.084 129.246C287.084 123.603 284.136 120.564 275.917 120.564C273.116 120.564 269.467 120.919 266.924 121.55V127.47C269.467 126.681 273.116 126.286 275.733 126.286C280.598 126.286 281.113 127.47 281.187 129.562C279.455 129.049 277.502 128.812 275.032 128.812C267.367 128.812 264.897 131.535 264.897 134.85V135.245C264.897 138.757 267.182 141.875 275.143 141.875C278.534 141.875 281.15 141.244 283.62 139.862L285.61 141.086H287.084V129.246ZM275.77 136.942C271.089 136.942 270.794 136.231 270.794 135.284C270.794 134.495 271.015 133.548 275.401 133.548C277.686 133.548 279.529 133.785 281.187 134.258V136.113C279.529 136.666 277.76 136.942 275.77 136.942ZM291.507 136.35V141.086H311.556V135.56H300.352L311.188 126.089V121.353H291.875V126.878H302.342L291.507 136.35ZM326.999 141.875C329.799 141.875 333.448 141.52 335.991 140.888V134.969C333.448 135.758 329.726 136.153 327.404 136.153C322.502 136.153 321.765 134.732 321.654 132.482C323.313 132.995 325.156 133.193 327.367 133.193C336.581 133.193 337.465 130.43 337.465 127.273V126.878C337.465 123.405 335.733 120.564 327.33 120.564H326.298C318.043 120.564 315.758 124.984 315.758 130.43V132.009C315.758 137.455 318.043 141.875 326.298 141.875H326.999ZM327.367 125.497C331.348 125.497 331.568 126.602 331.568 127.352C331.568 128.062 331.311 128.851 326.999 128.851C324.861 128.851 323.276 128.654 321.839 128.26C322.207 126.483 323.46 125.497 327.367 125.497ZM342.441 111.487V141.086H348.338V114.249L343.915 111.487H342.441ZM353.498 111.487V141.086H359.394V114.249L354.972 111.487H353.498ZM364.554 121.353V141.086H370.451V124.115L366.028 121.353H364.554ZM364.186 114.92C364.186 116.538 364.886 117.88 367.355 117.88H367.65C370.119 117.88 370.82 116.538 370.82 114.92V114.446C370.82 112.828 370.119 111.487 367.65 111.487H367.355C364.886 111.487 364.186 112.828 364.186 114.446V114.92Z" fill="#505050"/>
<path d="M151.457 199.961H162.93V215.555H160.368V202.412H154.019V215.555H151.457L151.457 199.961ZM175.321 214.152C174.193 215.28 172.804 215.845 171.156 215.845C169.507 215.845 168.119 215.28 166.99 214.152C165.846 213.008 165.275 211.619 165.275 209.986C165.275 208.352 165.846 206.964 166.99 205.82C168.119 204.691 169.507 204.127 171.156 204.127C172.804 204.127 174.193 204.691 175.321 205.82C176.465 206.964 177.037 208.352 177.037 209.986C177.037 211.619 176.465 213.008 175.321 214.152ZM167.681 209.986C167.681 210.996 168.015 211.835 168.683 212.503C169.351 213.171 170.176 213.506 171.156 213.506C172.136 213.506 172.96 213.171 173.628 212.503C174.297 211.835 174.631 210.996 174.631 209.986C174.631 208.976 174.297 208.137 173.628 207.469C172.96 206.8 172.136 206.466 171.156 206.466C170.176 206.466 169.351 206.8 168.683 207.469C168.015 208.137 167.681 208.976 167.681 209.986ZM188.579 204.417V213.283H190.071V218.54H187.71V215.555H180.069V218.54H177.708V213.283H179.067C179.75 212.332 180.091 210.988 180.091 209.251V204.417H188.579ZM181.717 213.283L186.217 213.283V206.622H182.453V209.251C182.453 210.855 182.208 212.199 181.717 213.283ZM200.412 205.998V204.417H202.818V215.555H200.412V213.951C199.506 215.213 198.206 215.845 196.513 215.845C194.984 215.845 193.677 215.28 192.593 214.152C191.509 213.023 190.966 211.634 190.966 209.986C190.966 208.337 191.509 206.949 192.593 205.82C193.677 204.691 194.984 204.127 196.513 204.127C198.206 204.127 199.506 204.751 200.412 205.998ZM194.375 212.548C195.043 213.216 195.882 213.55 196.892 213.55C197.902 213.55 198.741 213.216 199.409 212.548C200.078 211.864 200.412 211.011 200.412 209.986C200.412 208.961 200.078 208.115 199.409 207.446C198.741 206.763 197.902 206.422 196.892 206.422C195.882 206.422 195.043 206.763 194.375 207.446C193.706 208.115 193.372 208.961 193.372 209.986C193.372 210.996 193.706 211.85 194.375 212.548ZM211.926 204.127C213.441 204.127 214.748 204.699 215.847 205.842C216.931 206.971 217.473 208.352 217.473 209.986C217.473 211.634 216.931 213.023 215.847 214.152C214.762 215.28 213.456 215.845 211.926 215.845C210.248 215.845 208.948 215.221 208.028 213.973V220.01H205.622V204.417H208.028V206.021C208.933 204.758 210.233 204.127 211.926 204.127ZM209.03 212.548C209.698 213.216 210.537 213.55 211.547 213.55C212.557 213.55 213.396 213.216 214.064 212.548C214.733 211.864 215.067 211.011 215.067 209.986C215.067 208.961 214.733 208.115 214.064 207.446C213.396 206.763 212.557 206.422 211.547 206.422C210.537 206.422 209.698 206.763 209.03 207.446C208.362 208.115 208.028 208.961 208.028 209.986C208.028 210.996 208.362 211.85 209.03 212.548ZM229.076 214.152C227.947 215.28 226.559 215.845 224.91 215.845C223.262 215.845 221.873 215.28 220.745 214.152C219.601 213.008 219.029 211.619 219.029 209.986C219.029 208.352 219.601 206.964 220.745 205.82C221.873 204.691 223.262 204.127 224.91 204.127C226.559 204.127 227.947 204.691 229.076 205.82C230.22 206.964 230.791 208.352 230.791 209.986C230.791 211.619 230.22 213.008 229.076 214.152ZM221.435 209.986C221.435 210.996 221.769 211.835 222.438 212.503C223.106 213.171 223.93 213.506 224.91 213.506C225.891 213.506 226.715 213.171 227.383 212.503C228.051 211.835 228.386 210.996 228.386 209.986C228.386 208.976 228.051 208.137 227.383 207.469C226.715 206.8 225.891 206.466 224.91 206.466C223.93 206.466 223.106 206.8 222.438 207.469C221.769 208.137 221.435 208.976 221.435 209.986ZM239.521 209.518V204.417H241.927V215.555H239.521V211.79C238.645 212.117 237.709 212.28 236.714 212.28C235.304 212.28 234.205 211.939 233.418 211.256C232.63 210.558 232.237 209.555 232.237 208.248V204.417H234.643V208.026C234.643 209.362 235.437 210.03 237.026 210.03C237.932 210.03 238.764 209.86 239.521 209.518ZM252.243 208.85V204.417H254.649V215.555H252.243V211.122H247.142V215.555H244.736V204.417H247.142V208.85H252.243ZM266.262 205.998V204.417H268.668V215.555H266.262V213.951C265.356 215.213 264.056 215.845 262.363 215.845C260.834 215.845 259.527 215.28 258.443 214.152C257.359 213.023 256.817 211.634 256.817 209.986C256.817 208.337 257.359 206.949 258.443 205.82C259.527 204.691 260.834 204.127 262.363 204.127C264.056 204.127 265.356 204.751 266.262 205.998ZM260.225 212.548C260.893 213.216 261.732 213.55 262.742 213.55C263.752 213.55 264.591 213.216 265.259 212.548C265.928 211.864 266.262 211.011 266.262 209.986C266.262 208.961 265.928 208.115 265.259 207.446C264.591 206.763 263.752 206.422 262.742 206.422C261.732 206.422 260.893 206.763 260.225 207.446C259.557 208.115 259.222 208.961 259.222 209.986C259.222 210.996 259.557 211.85 260.225 212.548ZM275.125 204.417H280.093V215.555H277.731V211.813H276.395L273.566 215.555H270.737L273.744 211.59C272.972 211.337 272.348 210.892 271.873 210.253C271.412 209.615 271.182 208.902 271.182 208.115C271.182 207.09 271.546 206.221 272.274 205.508C273.001 204.781 273.952 204.417 275.125 204.417ZM275.259 209.741H277.731V206.6H275.259C274.754 206.6 274.338 206.748 274.011 207.045C273.699 207.328 273.544 207.706 273.544 208.181C273.544 208.657 273.699 209.035 274.011 209.318C274.338 209.6 274.754 209.741 275.259 209.741ZM293.229 209.874L298.308 215.555H295.434L290.868 210.409V215.555H288.462V204.417H290.868V209.34L295.189 204.417H298.13L293.229 209.874ZM307.856 205.998V204.417H310.262V215.555H307.856V213.951C306.95 215.213 305.651 215.845 303.958 215.845C302.428 215.845 301.121 215.28 300.037 214.152C298.953 213.023 298.411 211.634 298.411 209.986C298.411 208.337 298.953 206.949 300.037 205.82C301.121 204.691 302.428 204.127 303.958 204.127C305.651 204.127 306.95 204.751 307.856 205.998ZM301.819 212.548C302.487 213.216 303.326 213.55 304.336 213.55C305.346 213.55 306.185 213.216 306.853 212.548C307.522 211.864 307.856 211.011 307.856 209.986C307.856 208.961 307.522 208.115 306.853 207.446C306.185 206.763 305.346 206.422 304.336 206.422C303.326 206.422 302.487 206.763 301.819 207.446C301.151 208.115 300.817 208.961 300.817 209.986C300.817 210.996 301.151 211.85 301.819 212.548ZM319.37 204.127C320.885 204.127 322.192 204.699 323.291 205.842C324.375 206.971 324.917 208.352 324.917 209.986C324.917 211.634 324.375 213.023 323.291 214.152C322.207 215.28 320.9 215.845 319.37 215.845C317.692 215.845 316.393 215.221 315.472 213.973V220.01H313.066V204.417H315.472V206.021C316.378 204.758 317.677 204.127 319.37 204.127ZM316.474 212.548C317.143 213.216 317.982 213.55 318.991 213.55C320.001 213.55 320.84 213.216 321.509 212.548C322.177 211.864 322.511 211.011 322.511 209.986C322.511 208.961 322.177 208.115 321.509 207.446C320.84 206.763 320.001 206.422 318.991 206.422C317.982 206.422 317.143 206.763 316.474 207.446C315.806 208.115 315.472 208.961 315.472 209.986C315.472 210.996 315.806 211.85 316.474 212.548ZM325.482 204.417H335.172V206.733H331.541V215.555H329.135V206.733H325.482V204.417ZM345.186 205.998V204.417H347.592V215.555H345.186V213.951C344.28 215.213 342.981 215.845 341.288 215.845C339.758 215.845 338.451 215.28 337.367 214.152C336.283 213.023 335.741 211.634 335.741 209.986C335.741 208.337 336.283 206.949 337.367 205.82C338.451 204.691 339.758 204.127 341.288 204.127C342.981 204.127 344.28 204.751 345.186 205.998ZM339.149 212.548C339.818 213.216 340.657 213.55 341.667 213.55C342.676 213.55 343.515 213.216 344.184 212.548C344.852 211.864 345.186 211.011 345.186 209.986C345.186 208.961 344.852 208.115 344.184 207.446C343.515 206.763 342.676 206.422 341.667 206.422C340.657 206.422 339.818 206.763 339.149 207.446C338.481 208.115 338.147 208.961 338.147 209.986C338.147 210.996 338.481 211.85 339.149 212.548Z" fill="#505050"/>
<path d="M191.809 253.831H181.54V251.826L186.975 246.28C188.297 244.958 188.958 243.814 188.958 242.849C188.958 242.107 188.735 241.52 188.29 241.089C187.844 240.659 187.265 240.443 186.552 240.443C185.245 240.443 184.28 241.089 183.656 242.381L181.495 241.112C181.971 240.087 182.654 239.307 183.545 238.773C184.436 238.223 185.431 237.948 186.53 237.948C187.911 237.948 189.084 238.379 190.049 239.24C191.03 240.117 191.52 241.29 191.52 242.76C191.52 244.334 190.636 246.027 188.869 247.839L185.349 251.359H191.809V253.831ZM203.939 251.916C202.87 253.386 201.37 254.121 199.44 254.121C197.524 254.121 196.017 253.386 194.918 251.916C193.848 250.445 193.314 248.485 193.314 246.035C193.314 243.584 193.848 241.624 194.918 240.154C196.017 238.683 197.524 237.948 199.44 237.948C201.37 237.948 202.87 238.683 203.939 240.154C205.024 241.609 205.566 243.569 205.566 246.035C205.566 248.5 205.024 250.46 203.939 251.916ZM199.44 251.626C200.598 251.626 201.482 251.143 202.091 250.178C202.699 249.213 203.004 247.832 203.004 246.035C203.004 244.238 202.699 242.857 202.091 241.891C201.482 240.926 200.598 240.443 199.44 240.443C198.296 240.443 197.412 240.926 196.789 241.891C196.18 242.857 195.875 244.238 195.875 246.035C195.875 247.832 196.18 249.213 196.789 250.178C197.412 251.143 198.296 251.626 199.44 251.626ZM217.971 251.916C216.902 253.386 215.402 254.121 213.471 254.121C211.555 254.121 210.048 253.386 208.949 251.916C207.88 250.445 207.345 248.485 207.345 246.035C207.345 243.584 207.88 241.624 208.949 240.154C210.048 238.683 211.555 237.948 213.471 237.948C215.402 237.948 216.902 238.683 217.971 240.154C219.055 241.609 219.597 243.569 219.597 246.035C219.597 248.5 219.055 250.46 217.971 251.916ZM213.471 251.626C214.63 251.626 215.513 251.143 216.122 250.178C216.731 249.213 217.035 247.832 217.035 246.035C217.035 244.238 216.731 242.857 216.122 241.891C215.513 240.926 214.63 240.443 213.471 240.443C212.328 240.443 211.444 240.926 210.82 241.891C210.211 242.857 209.907 244.238 209.907 246.035C209.907 247.832 210.211 249.213 210.82 250.178C211.444 251.143 212.328 251.626 213.471 251.626ZM232.002 251.916C230.933 253.386 229.433 254.121 227.503 254.121C225.587 254.121 224.079 253.386 222.981 251.916C221.911 250.445 221.377 248.485 221.377 246.035C221.377 243.584 221.911 241.624 222.981 240.154C224.079 238.683 225.587 237.948 227.503 237.948C229.433 237.948 230.933 238.683 232.002 240.154C233.087 241.609 233.629 243.569 233.629 246.035C233.629 248.5 233.087 250.46 232.002 251.916ZM227.503 251.626C228.661 251.626 229.545 251.143 230.154 250.178C230.762 249.213 231.067 247.832 231.067 246.035C231.067 244.238 230.762 242.857 230.154 241.891C229.545 240.926 228.661 240.443 227.503 240.443C226.359 240.443 225.475 240.926 224.852 241.891C224.243 242.857 223.938 244.238 223.938 246.035C223.938 247.832 224.243 249.213 224.852 250.178C225.475 251.143 226.359 251.626 227.503 251.626ZM246.747 254.121C245.069 254.121 243.665 253.557 242.537 252.428C241.423 251.284 240.866 249.896 240.866 248.262C240.866 246.599 241.423 245.21 242.537 244.097C243.665 242.968 245.069 242.404 246.747 242.404C247.831 242.404 248.818 242.663 249.71 243.183C250.601 243.703 251.269 244.401 251.714 245.277L249.643 246.48C249.39 245.946 249.004 245.53 248.484 245.233C247.979 244.921 247.393 244.765 246.725 244.765C245.744 244.765 244.92 245.099 244.252 245.767C243.598 246.45 243.272 247.282 243.272 248.262C243.272 249.242 243.598 250.074 244.252 250.757C244.92 251.426 245.744 251.76 246.725 251.76C247.378 251.76 247.965 251.611 248.484 251.314C249.019 251.002 249.42 250.579 249.687 250.044L251.759 251.225C251.284 252.116 250.593 252.821 249.687 253.341C248.796 253.861 247.816 254.121 246.747 254.121ZM262.747 252.428C261.618 253.557 260.23 254.121 258.581 254.121C256.933 254.121 255.544 253.557 254.415 252.428C253.272 251.284 252.7 249.896 252.7 248.262C252.7 246.629 253.272 245.24 254.415 244.097C255.544 242.968 256.933 242.404 258.581 242.404C260.23 242.404 261.618 242.968 262.747 244.097C263.89 245.24 264.462 246.629 264.462 248.262C264.462 249.896 263.89 251.284 262.747 252.428ZM255.106 248.262C255.106 249.272 255.44 250.111 256.108 250.779C256.777 251.448 257.601 251.782 258.581 251.782C259.561 251.782 260.385 251.448 261.054 250.779C261.722 250.111 262.056 249.272 262.056 248.262C262.056 247.252 261.722 246.413 261.054 245.745C260.385 245.077 259.561 244.743 258.581 244.743C257.601 244.743 256.777 245.077 256.108 245.745C255.44 246.413 255.106 247.252 255.106 248.262ZM275.548 242.693H277.998V253.831H275.659V246.502L272.452 251.604H272.162L268.976 246.525V253.831H266.637V242.693H269.088L272.318 247.839L275.548 242.693ZM290.201 252.428C289.072 253.557 287.683 254.121 286.035 254.121C284.387 254.121 282.998 253.557 281.869 252.428C280.726 251.284 280.154 249.896 280.154 248.262C280.154 246.629 280.726 245.24 281.869 244.097C282.998 242.968 284.387 242.404 286.035 242.404C287.683 242.404 289.072 242.968 290.201 244.097C291.344 245.24 291.916 246.629 291.916 248.262C291.916 249.896 291.344 251.284 290.201 252.428ZM282.56 248.262C282.56 249.272 282.894 250.111 283.562 250.779C284.231 251.448 285.055 251.782 286.035 251.782C287.015 251.782 287.839 251.448 288.508 250.779C289.176 250.111 289.51 249.272 289.51 248.262C289.51 247.252 289.176 246.413 288.508 245.745C287.839 245.077 287.015 244.743 286.035 244.743C285.055 244.743 284.231 245.077 283.562 245.745C282.894 246.413 282.56 247.252 282.56 248.262ZM301.598 247.126V242.693H304.004V253.831H301.598V249.398H296.497V253.831H294.091V242.693H296.497V247.126H301.598ZM309.157 249.755L314.86 242.693H316.709V253.831H314.347V246.747L308.645 253.831H306.796V242.693H309.157V249.755Z" fill="#505050"/>
</g>
<defs>
<filter id="filter0_n_4_64" x="0" y="0" width="500" height="300" filterUnits="userSpaceOnUse" color-interpolation-filters="sRGB">
<feFlood flood-opacity="0" result="BackgroundImageFix"/>
<feBlend mode="normal" in="SourceGraphic" in2="BackgroundImageFix" result="shape"/>
<feTurbulence type="fractalNoise" baseFrequency="0.66666668653488159 0.66666668653488159" stitchTiles="stitch" numOctaves="3" result="noise" seed="3332" />
<feColorMatrix in="noise" type="luminanceToAlpha" result="alphaNoise" />
<feComponentTransfer in="alphaNoise" result="coloredNoise1">
<feFuncA type="discrete" tableValues="1 1 1 1 1 1 1 1 1 1 1 1 1 1 1 1 1 1 1 1 1 1 1 1 1 1 1 1 1 1 1 1 1 1 1 1 1 1 1 1 1 1 1 1 1 1 1 1 1 1 1 0 0 0 0 0 0 0 0 0 0 0 0 0 0 0 0 0 0 0 0 0 0 0 0 0 0 0 0 0 0 0 0 0 0 0 0 0 0 0 0 0 0 0 0 0 0 0 0 0 "/>
</feComponentTransfer>
<feComposite operator="in" in2="shape" in="coloredNoise1" result="noise1Clipped" />
<feFlood flood-color="rgba(0, 0, 0, 0.05)" result="color1Flood" />
<feComposite operator="in" in2="noise1Clipped" in="color1Flood" result="color1" />
<feMerge result="effect1_noise_4_64">
<feMergeNode in="shape" />
<feMergeNode in="color1" />
</feMerge>
</filter>
<linearGradient id="paint0_linear_4_64" x1="0" y1="0" x2="263.201" y2="444.031" gradientUnits="userSpaceOnUse">
<stop stop-color="#C9C9C9"/>
<stop offset="0.5" stop-color="#EEEEEE"/>
<stop offset="1" stop-color="#626262"/>
</linearGradient>
<linearGradient id="paint1_linear_4_64" x1="0" y1="0" x2="500" y2="300" gradientUnits="userSpaceOnUse">
<stop stop-color="white" stop-opacity="0.2"/>
<stop offset="1" stop-opacity="0.1"/>
</linearGradient>
</defs>
</svg>
