<svg width="154" height="34" viewBox="0 0 154 34" fill="none" xmlns="http://www.w3.org/2000/svg">
<path d="M52.3721 21.7362C53.2735 21.7362 54.1196 21.5702 54.9103 21.2381C55.7168 20.906 56.4205 20.4078 57.0214 19.7436V23.5864C56.3572 23.966 55.6377 24.2585 54.8628 24.4641C54.0879 24.6697 53.2498 24.7725 52.3484 24.7725C51.0516 24.7725 49.8498 24.5669 48.7428 24.1557C47.6516 23.7288 46.7028 23.1357 45.8963 22.3767C45.1056 21.6176 44.4888 20.7162 44.046 19.6725C43.6032 18.6287 43.3818 17.4822 43.3818 16.2329C43.3818 14.9836 43.5953 13.8371 44.0223 12.7934C44.4651 11.7497 45.0739 10.8483 45.8488 10.0892C46.6395 9.33011 47.5725 8.74499 48.6479 8.33383C49.7233 7.90685 50.9014 7.69336 52.1823 7.69336C53.0363 7.69336 53.8349 7.79615 54.5782 8.00173C55.3372 8.1915 56.033 8.46034 56.6656 8.80825L56.5944 12.7459C56.0726 12.145 55.4321 11.6627 54.673 11.299C53.9298 10.9194 53.0837 10.7296 52.1349 10.7296C51.36 10.7296 50.6484 10.8641 50 11.1329C49.3674 11.3859 48.8219 11.7497 48.3632 12.2241C47.9205 12.6985 47.5725 13.2757 47.3195 13.9557C47.0823 14.6199 46.9637 15.3632 46.9637 16.1855C46.9637 17.0236 47.0902 17.7906 47.3432 18.4864C47.6121 19.1664 47.9837 19.7515 48.4581 20.2418C48.9326 20.7162 49.5019 21.0878 50.166 21.3567C50.8302 21.6097 51.5656 21.7362 52.3721 21.7362Z" fill="#505050"/>
<path d="M62.796 16.0194H66.8523C67.6746 16.0194 68.323 15.7901 68.7974 15.3315C69.2718 14.8729 69.5091 14.2483 69.5091 13.4576C69.5091 12.6827 69.2639 12.0659 68.7737 11.6073C68.2993 11.1329 67.6588 10.8957 66.8523 10.8957H62.796V16.0194ZM62.796 24.5353H59.3327V7.93057H67.0421C67.9118 7.93057 68.7104 8.0729 69.4379 8.35755C70.1653 8.62639 70.79 9.00592 71.3118 9.49616C71.8495 9.98639 72.2607 10.5715 72.5453 11.2515C72.8458 11.9157 72.996 12.6431 72.996 13.4338C72.996 14.0664 72.8932 14.6673 72.6877 15.2366C72.4979 15.8059 72.2212 16.3199 71.8574 16.7785C71.4937 17.2213 71.043 17.6087 70.5053 17.9408C69.9835 18.2571 69.3984 18.5022 68.75 18.6762L73.3044 24.5353H69.1295L64.9072 19.0083H62.796V24.5353Z" fill="#505050"/>
<path d="M86.9405 17.7273H78.7567V21.2381H87.5572V24.5353H75.2935V7.93057H87.4386V11.2752H78.7567V14.5013H86.9405V17.7273Z" fill="#505050"/>
<path d="M95.0299 19.3404H99.2522L97.1648 14.8571L95.0299 19.3404ZM105.586 24.5353H101.719L100.699 22.3529H93.5829L92.5392 24.5353H88.6964L97.1885 7.69336L105.586 24.5353Z" fill="#505050"/>
<path d="M113.641 15.2366H110.344V19.9808C110.344 21.3092 110.977 21.9734 112.242 21.9734C112.447 21.9734 112.7 21.9655 113.001 21.9497C113.317 21.9181 113.673 21.8706 114.068 21.8074L114.258 24.5827C114.052 24.6143 113.815 24.6381 113.546 24.6539C113.278 24.6697 113.009 24.6855 112.74 24.7013C112.487 24.733 112.25 24.7488 112.028 24.7488C111.807 24.7646 111.625 24.7725 111.483 24.7725C110.012 24.7725 108.897 24.3771 108.138 23.5864C107.379 22.7799 106.999 21.6018 106.999 20.052V15.2366H104.864V12.4613H106.999V9.11662H110.344V12.4613H113.641V15.2366Z" fill="#505050"/>
<path d="M121.755 24.7725C120.806 24.7725 119.928 24.6143 119.122 24.2981C118.315 23.9818 117.619 23.5469 117.034 22.9934C116.449 22.4399 115.991 21.7836 115.658 21.0246C115.326 20.2497 115.16 19.4036 115.16 18.4864C115.16 17.585 115.318 16.7548 115.635 15.9957C115.967 15.2208 116.425 14.5566 117.011 14.0031C117.596 13.4338 118.291 12.999 119.098 12.6985C119.905 12.3822 120.79 12.2241 121.755 12.2241C122.704 12.2241 123.581 12.3822 124.388 12.6985C125.194 12.999 125.882 13.4338 126.452 14.0031C127.037 14.5566 127.495 15.2208 127.827 15.9957C128.159 16.7548 128.325 17.585 128.325 18.4864C128.325 19.4036 128.159 20.2497 127.827 21.0246C127.511 21.7836 127.06 22.4478 126.475 23.0171C125.89 23.5706 125.194 24.0055 124.388 24.3218C123.581 24.6223 122.704 24.7725 121.755 24.7725ZM121.731 15.0469C120.798 15.0469 120.039 15.3632 119.454 15.9957C118.885 16.6125 118.6 17.4427 118.6 18.4864C118.6 19.0083 118.671 19.4827 118.813 19.9097C118.972 20.3367 119.185 20.7083 119.454 21.0246C119.738 21.325 120.071 21.5622 120.45 21.7362C120.845 21.8943 121.28 21.9734 121.755 21.9734C122.704 21.9734 123.455 21.6571 124.008 21.0246C124.578 20.392 124.862 19.5539 124.862 18.5101C124.862 17.4664 124.578 16.6283 124.008 15.9957C123.439 15.3632 122.68 15.0469 121.731 15.0469Z" fill="#505050"/>
<path d="M138.604 12.4613L138.415 15.3078C138.241 15.2604 137.996 15.2208 137.679 15.1892C137.379 15.1576 137.102 15.1418 136.849 15.1418C135.805 15.1418 135.007 15.4264 134.453 15.9957C133.916 16.5492 133.647 17.3083 133.647 18.2729V24.5353H130.302V12.4613H133.647V13.5524C134.042 13.1413 134.517 12.8171 135.07 12.5799C135.639 12.3427 136.24 12.2241 136.873 12.2241C137.126 12.2241 137.411 12.2478 137.727 12.2952C138.043 12.3269 138.336 12.3822 138.604 12.4613Z" fill="#505050"/>
<path d="M149.834 12.4613H153.439L145.73 29.8251H142.29L144.662 24.4404L139.562 12.4613H143.192L146.441 20.3841L149.834 12.4613Z" fill="#505050"/>
<path fill-rule="evenodd" clip-rule="evenodd" d="M24.0253 0H9.95367L26.2841 16.3304L33.3235 9.29099L24.0253 0Z" fill="#505050"/>
<path fill-rule="evenodd" clip-rule="evenodd" d="M9.29799 0.655431L0.6553 9.29098L7.69491 16.3304L16.3303 7.69482L9.29799 0.655431Z" fill="#505050"/>
<path fill-rule="evenodd" clip-rule="evenodd" d="M9.95356 33.9787H24.0252L0 9.9535V24.0252L9.95356 33.9787Z" fill="#505050"/>
<path fill-rule="evenodd" clip-rule="evenodd" d="M24.6807 33.3233L33.3232 24.6879L26.2838 17.6485L17.6484 26.2839L24.6807 33.3233Z" fill="#505050"/>
</svg>
