<svg width="18" height="18" viewBox="0 0 18 18" fill="none" xmlns="http://www.w3.org/2000/svg">
<path fill-rule="evenodd" clip-rule="evenodd" d="M5.31325 0H12.6867C13.6627 0.108434 14.3133 0.216868 14.8554 0.433736C15.506 0.759037 15.9398 0.975904 16.4819 1.51807C17.0241 2.06024 17.3494 2.60241 17.5663 3.14458C17.7831 3.68675 18 4.33735 18 5.31325V12.6867C17.8916 13.6627 17.7831 14.3133 17.5663 14.8554C17.241 15.506 17.0241 15.9398 16.4819 16.4819C15.9398 17.0241 15.3976 17.3494 14.8554 17.5663C14.3133 17.7831 13.6627 18 12.6867 18H5.31325C4.33735 17.8916 3.68675 17.7831 3.14458 17.5663C2.49398 17.241 2.06024 17.0241 1.51807 16.4819C0.975904 15.9398 0.650603 15.3976 0.433736 14.8554C0.216868 14.3133 0 13.6627 0 12.6867V5.31325C0.108434 4.33735 0.216868 3.68675 0.433736 3.14458C0.759037 2.49398 0.975904 2.06024 1.51807 1.51807C2.06024 0.975904 2.60241 0.650603 3.14458 0.433736C3.68675 0.216868 4.33735 0 5.31325 0ZM5.31325 1.62651H12.6867C13.42 1.62651 13.8434 1.78147 14.1533 1.8949C14.21 1.91566 14.2629 1.93503 14.3133 1.95181C14.4036 1.99699 14.4897 2.03767 14.5716 2.07638C14.8828 2.22338 15.1402 2.345 15.3976 2.60241C15.7229 2.92771 15.9398 3.25301 16.0482 3.68675C16.1566 4.01205 16.2651 4.44578 16.3735 5.31325V12.6867C16.3735 13.42 16.2185 13.8434 16.1051 14.1533C16.0843 14.21 16.065 14.2629 16.0482 14.3133C16.0029 14.4038 15.9624 14.4896 15.9236 14.5716C15.7766 14.8828 15.655 15.1402 15.3976 15.3976C15.0723 15.7229 14.747 15.9398 14.3133 16.0482C13.988 16.1566 13.5542 16.2651 12.6867 16.3735H5.31325C4.57998 16.3735 4.15663 16.2185 3.84671 16.1051C3.78999 16.0843 3.73707 16.065 3.68675 16.0482C3.59622 16.0029 3.51042 15.9624 3.42836 15.9236C3.11723 15.7766 2.85982 15.655 2.60241 15.3976C2.27711 15.0723 2.06024 14.747 1.95181 14.3133C1.84337 13.988 1.73494 13.5542 1.62651 12.6867V5.31325C1.62651 4.57998 1.78146 4.15663 1.8949 3.84671C1.91566 3.78999 1.93503 3.73707 1.95181 3.68675C1.99135 3.60767 2.02736 3.53202 2.06168 3.45946C2.06658 3.4491 2.07155 3.43859 2.07638 3.42836C2.22338 3.11723 2.345 2.85982 2.60241 2.60241C2.92771 2.27711 3.25301 2.06024 3.68675 1.95181C4.01205 1.84337 4.44578 1.73494 5.31325 1.62651Z" fill="white"/>
<path fill-rule="evenodd" clip-rule="evenodd" d="M2.07638 3.42836C2.07155 3.43859 2.06658 3.4491 2.06168 3.45946L2.07638 3.42836Z" fill="white"/>
<path fill-rule="evenodd" clip-rule="evenodd" d="M9 4.33735C6.39759 4.33735 4.33735 6.39759 4.33735 9C4.33735 11.6024 6.39759 13.6627 9 13.6627C11.6024 13.6627 13.6627 11.6024 13.6627 9C13.6627 6.39759 11.6024 4.33735 9 4.33735ZM5.96386 9C5.96386 10.7349 7.37349 12.0361 9 12.0361C10.6265 12.0361 12.0361 10.6265 12.0361 9C12.0361 7.26506 10.6265 5.96386 9 5.96386C7.26506 5.96386 5.96386 7.37349 5.96386 9Z" fill="white"/>
<path d="M14.8554 4.22892C14.8554 4.82778 14.3699 5.31325 13.7711 5.31325C13.1722 5.31325 12.6867 4.82778 12.6867 4.22892C12.6867 3.63005 13.1722 3.14458 13.7711 3.14458C14.3699 3.14458 14.8554 3.63005 14.8554 4.22892Z" fill="white"/>
</svg>
