<svg width="237" height="60" viewBox="0 0 237 60" fill="none" xmlns="http://www.w3.org/2000/svg">
<path d="M80.0767 16.0981C84.6868 16.0981 86.2617 18.6246 86.2617 23.3726C86.2617 28.0822 84.7249 31.3363 80.192 31.3363H76.9272V18.9312H69.2815V31.3363H66.8262L66.8618 36.1613H80.115C89.7186 36.1613 94.2134 31.4132 94.2134 23.3726C94.2134 15.1026 89.3727 11.2731 80.0767 11.2731H66.8618L66.8262 16.0981H80.0767ZM71.6919 45.1873L73.7604 40.9862H74.8662L76.5321 47.6487H74.8914L73.9954 43.7383L71.9981 47.6487H71.3099L69.363 43.734L68.4627 47.6487H66.8262L68.4985 40.9862H69.6042L71.6919 45.1873ZM82.4005 40.9862H84.0747V47.6487H82.4005V46.9398C82.0731 47.2493 81.7438 47.4709 81.4144 47.6069C81.0848 47.7428 80.726 47.8118 80.3421 47.8118C79.4757 47.8118 78.7287 47.4794 78.0972 46.8123C77.4657 46.1473 77.1509 45.3192 77.1509 44.3301C77.1509 43.3032 77.4573 42.4626 78.0678 41.806C78.6784 41.1515 79.4189 40.8232 80.2918 40.8232C80.6946 40.8232 81.0702 40.8984 81.4227 41.0469C81.7752 41.1953 82.1003 41.4211 82.4005 41.7182V40.9862ZM80.6359 42.3538C80.1156 42.3538 79.6833 42.5358 79.3414 42.9017C78.9972 43.2656 78.8253 43.734 78.8253 44.3048C78.8253 44.8801 78.9994 45.3526 79.3497 45.7248C79.7002 46.0949 80.1302 46.2812 80.6422 46.2812C81.1688 46.2812 81.6074 46.0992 81.9536 45.7332C82.3018 45.3694 82.476 44.8904 82.476 44.2986C82.476 43.7195 82.3018 43.251 81.9536 42.8914C81.6074 42.5338 81.1668 42.3538 80.6359 42.3538ZM85.7636 40.9862H89.666V42.5797H87.4378V47.6487H85.7636V40.9862ZM95.7442 40.9862H97.4185V47.6487H95.7442V46.9398C95.4169 47.2493 95.0875 47.4709 94.7581 47.6069C94.4286 47.7428 94.0698 47.8118 93.6858 47.8118C92.8195 47.8118 92.0725 47.4794 91.4409 46.8123C90.8094 46.1473 90.4947 45.3192 90.4947 44.3301C90.4947 43.3032 90.8011 42.4626 91.4115 41.806C92.0222 41.1515 92.7627 40.8232 93.6355 40.8232C94.0383 40.8232 94.414 40.8984 94.7665 41.0469C95.119 41.1953 95.4441 41.4211 95.7442 41.7182V40.9862ZM93.9797 42.3538C93.4594 42.3538 93.0271 42.5358 92.6852 42.9017C92.341 43.2656 92.1691 43.734 92.1691 44.3048C92.1691 44.8801 92.3432 45.3526 92.6935 45.7248C93.0439 46.0949 93.474 46.2812 93.986 46.2812C94.5126 46.2812 94.9511 46.0992 95.2973 45.7332C95.6456 45.3694 95.8197 44.8904 95.8197 44.2986C95.8197 43.7195 95.6456 43.251 95.2973 42.8914C94.9511 42.5338 94.5106 42.3538 93.9797 42.3538ZM100.228 44.8257V43.6337H100.559C100.784 43.6337 100.979 43.5813 101.147 43.4747C101.314 43.3701 101.398 43.2008 101.398 42.9644C101.398 42.7617 101.323 42.5942 101.174 42.4626C101.023 42.3309 100.838 42.266 100.62 42.266C100.345 42.266 99.999 42.3978 99.5836 42.6634L98.9289 41.5091C99.5059 41.0511 100.15 40.8232 100.859 40.8232C101.512 40.8232 102.051 40.9904 102.481 41.327C102.909 41.6638 103.123 42.1155 103.123 42.6863C103.123 43.2656 102.811 43.734 102.185 44.0916C103.02 44.3969 103.438 44.949 103.438 45.7478C103.438 46.3417 103.205 46.8352 102.737 47.2264C102.269 47.6174 101.623 47.8118 100.796 47.8118C99.8898 47.8118 99.141 47.5587 98.5513 47.0527L99.4704 45.89C99.8689 46.1849 100.249 46.3313 100.61 46.3313C100.897 46.3313 101.126 46.2622 101.296 46.1263C101.466 45.9903 101.549 45.8148 101.549 45.5993C101.549 45.3924 101.47 45.2124 101.312 45.0577C101.155 44.9029 100.939 44.8257 100.664 44.8257H100.228ZM105.666 47.6487H104.774V40.9862H106.411V44.8989L109.835 40.9862H110.641V47.6487H109.004V43.8155L105.666 47.6487ZM114.004 43.3827H116.522V40.9862H118.196V47.6487H116.522V44.8884H114.004V47.6487H112.33V40.9862H114.004V43.3827ZM127.505 45.1873L129.574 40.9862H130.68L132.346 47.6487H130.705L129.809 43.7383L127.812 47.6487H127.124L125.177 43.734L124.276 47.6487H122.64L124.312 40.9862H125.418L127.505 45.1873ZM132.52 40.9862H134.24L135.971 45.1582L137.889 40.9862H139.605L135.424 50.0828H133.707L135.067 47.1572L132.52 40.9862ZM143.955 45.5053L143.766 45.3107L141.783 47.6487H139.557L142.576 44.2233L139.595 40.9862H141.638L143.955 43.481V40.9862H145.629V43.4852L147.956 40.9862H150.001L147.007 44.2233L150.039 47.6487H147.809L145.809 45.3004L145.629 45.5053V47.6487H143.955V45.5053ZM157.263 42.3412L155.868 43.1066C155.605 42.8327 155.347 42.6446 155.091 42.5378C154.835 42.4312 154.535 42.379 154.191 42.379C153.564 42.379 153.056 42.5651 152.67 42.9353C152.282 43.3074 152.089 43.7822 152.089 44.3635C152.089 44.928 152.276 45.3882 152.647 45.7458C153.02 46.1034 153.509 46.2812 154.116 46.2812C154.865 46.2812 155.448 46.0259 155.868 45.5158L157.187 46.4191C156.47 47.3476 155.458 47.8118 154.151 47.8118C152.974 47.8118 152.053 47.4647 151.388 46.7725C150.723 46.0803 150.389 45.2711 150.389 44.3426C150.389 43.6984 150.551 43.1066 150.874 42.5651C151.199 42.0234 151.65 41.5969 152.232 41.2874C152.811 40.9779 153.459 40.8232 154.177 40.8232C154.842 40.8232 155.437 40.9548 155.966 41.2184C156.495 41.4818 156.927 41.8562 157.263 42.3412ZM158.775 40.9862H160.45V43.481L162.777 40.9862H164.822L161.828 44.2233L164.86 47.6487H162.63L160.63 45.3004L160.45 45.5053V47.6487H158.775V40.9862ZM168.683 40.8232C169.314 40.8232 169.908 40.9799 170.464 41.2937C171.022 41.6074 171.454 42.0317 171.767 42.5692C172.08 43.1088 172.235 43.6881 172.235 44.3111C172.235 44.9385 172.078 45.5241 171.765 46.0698C171.45 46.6157 171.022 47.0423 170.481 47.3498C169.937 47.657 169.342 47.8118 168.689 47.8118C167.728 47.8118 166.908 47.4732 166.23 46.7956C165.55 46.1159 165.21 45.2919 165.21 44.3238C165.21 43.2844 165.594 42.4187 166.362 41.7265C167.036 41.1242 167.808 40.8232 168.683 40.8232ZM168.708 42.3916C168.186 42.3916 167.751 42.5714 167.405 42.931C167.059 43.2929 166.885 43.7528 166.885 44.3153C166.885 44.8926 167.057 45.3609 167.399 45.7185C167.741 46.0761 168.175 46.2559 168.702 46.2559C169.226 46.2559 169.663 46.0741 170.013 45.7122C170.361 45.3505 170.535 44.8841 170.535 44.3153C170.535 43.7445 170.363 43.2824 170.021 42.9247C169.68 42.5692 169.241 42.3916 168.708 42.3916ZM174.488 47.6487H173.597V40.9862H175.233V44.8989L178.657 40.9862H179.463V47.6487H177.826V43.8155L174.488 47.6487ZM174.05 38.0503H175.409C175.516 38.2175 175.663 38.343 175.854 38.4265C176.043 38.5102 176.276 38.5521 176.549 38.5521C176.826 38.5521 177.077 38.504 177.302 38.4057C177.449 38.3409 177.577 38.2216 177.688 38.0503H179.048C178.97 38.5689 178.72 38.985 178.3 39.2987C177.881 39.6124 177.296 39.7691 176.542 39.7691C176.035 39.7691 175.611 39.698 175.269 39.558C174.927 39.4178 174.652 39.217 174.442 38.9556C174.234 38.6943 174.102 38.3931 174.05 38.0503ZM187.82 40.8232C188.451 40.8232 189.045 40.9799 189.601 41.2937C190.159 41.6074 190.591 42.0317 190.904 42.5692C191.217 43.1088 191.372 43.6881 191.372 44.3111C191.372 44.9385 191.215 45.5241 190.902 46.0698C190.587 46.6157 190.159 47.0423 189.618 47.3498C189.074 47.657 188.479 47.8118 187.826 47.8118C186.865 47.8118 186.045 47.4732 185.367 46.7956C184.687 46.1159 184.347 45.2919 184.347 44.3238C184.347 43.2844 184.731 42.4187 185.499 41.7265C186.173 41.1242 186.945 40.8232 187.82 40.8232ZM187.845 42.3916C187.323 42.3916 186.888 42.5714 186.542 42.931C186.196 43.2929 186.022 43.7528 186.022 44.3153C186.022 44.8926 186.194 45.3609 186.536 45.7185C186.878 46.0761 187.312 46.2559 187.839 46.2559C188.363 46.2559 188.8 46.0741 189.15 45.7122C189.498 45.3505 189.672 44.8841 189.672 44.3153C189.672 43.7445 189.5 43.2824 189.158 42.9247C188.816 42.5692 188.378 42.3916 187.845 42.3916ZM193.602 47.6487V48.8031H192.104V46.2308H193.109L195.428 40.9862H196.51L198.843 46.2308H199.871V48.8031H198.273V47.6487H193.602ZM197.06 46.2308L195.963 43.4162L194.813 46.2308H197.06ZM207.617 44.788H202.236C202.313 45.2628 202.521 45.6412 202.857 45.9236C203.193 46.2037 203.623 46.3439 204.143 46.3439C204.768 46.3439 205.303 46.1242 205.752 45.6851L207.158 46.3479C206.807 46.8457 206.386 47.2138 205.897 47.4543C205.406 47.6926 204.825 47.8118 204.151 47.8118C203.107 47.8118 202.255 47.4835 201.598 46.8249C200.941 46.1681 200.612 45.3443 200.612 44.3552C200.612 43.3408 200.941 42.4982 201.598 41.8289C202.255 41.1577 203.077 40.8232 204.069 40.8232C205.121 40.8232 205.977 41.1577 206.636 41.8248C207.294 42.4939 207.624 43.3744 207.624 44.4723L207.617 44.788ZM205.949 43.483C205.838 43.1191 205.62 42.8222 205.295 42.5942C204.967 42.3665 204.59 42.2534 204.158 42.2534C203.69 42.2534 203.281 42.381 202.926 42.6383C202.706 42.7971 202.5 43.0795 202.311 43.483H205.949ZM212.372 45.5053L212.183 45.3107L210.2 47.6487H207.974L210.993 44.2233L208.012 40.9862H210.055L212.372 43.481V40.9862H214.046V43.4852L216.373 40.9862H218.419L215.425 44.2233L218.456 47.6487H216.226L214.226 45.3004L214.046 45.5053V47.6487H212.372V45.5053ZM220.002 47.6487V48.8031H218.505V46.2308H219.51L221.828 40.9862H222.911L225.244 46.2308H226.272V48.8031H224.673V47.6487H220.002ZM223.46 46.2308L222.363 43.4162L221.213 46.2308H223.46ZM229.001 43.3952H229.501C230.206 43.3952 230.745 43.4496 231.12 43.5562C231.498 43.665 231.815 43.8908 232.075 44.2318C232.333 44.5747 232.463 45.0055 232.463 45.5221C232.463 46.0344 232.346 46.463 232.113 46.8018C231.878 47.1427 231.58 47.3686 231.217 47.4815C230.854 47.5923 230.346 47.6487 229.689 47.6487H227.327V40.9862H229.001V43.3952ZM229.001 46.3564H229.513C229.819 46.3564 230.04 46.3354 230.176 46.2915C230.31 46.2496 230.43 46.1681 230.533 46.047C230.636 45.9236 230.688 45.7771 230.688 45.6014C230.688 45.0348 230.359 44.7504 229.7 44.7504H229.001V46.3564ZM233.634 40.9862H235.308V47.6487H233.634V40.9862ZM16.6226 43.7729H24.2666V40.1435H16.6226V43.7729ZM13.2142 13.4672H39.3581V38.7721H15.3392V33.9478H16.6226V21.1253H24.2666V33.9478H31.7132V18.291H13.2142V13.4672ZM3.82181 0H53.4829V52.3657L50.7064 53.1582L27.7859 59.7016L26.7413 60L25.6964 59.7016L2.77689 53.1582L0 52.3657V0H3.82181ZM45.8393 7.61861H7.64361V46.6301L26.7413 52.0824L45.8393 46.6301V7.61861ZM124.466 36.2936V31.6347H121.986V16.3954H124.466V11.5715H115.079L105.536 25.4919H105.421L105.425 16.3954H107.905V11.5715H95.7705V16.3954H98.1742V31.6347H95.7705V36.2936H105.383L114.927 22.2572L114.736 31.6347H112.408V36.2936H124.466ZM126.565 36.2936C126.565 36.2936 127.595 37.13 130.037 37.13C135.838 37.13 140.068 32.5493 140.15 16.3954H143.855L143.852 31.6347H141.105L141.132 36.2936H153.963L153.939 31.6347H151.446V16.3954H153.963V11.5715H130.115L129.771 16.3954H133.358C132.959 28.1187 131.183 30.3983 128.435 30.3983C127.367 30.3983 126.832 30.1325 126.832 30.1325L126.565 36.2936ZM184.607 36.2936V31.6347H182.088V16.3954H184.607V11.5715H156.865V16.3954H159.268V31.6347H156.865V36.2936H169.342V31.6347H166.862V16.3954H174.494V31.6347H172.052V36.2936H184.607ZM198.688 16.3254V11.5715H186.209V16.3954H189.263L197.161 30.0562C196.131 31.235 195.139 31.5397 193.841 31.5397L193.269 28.1927L188.116 28.5339L188.498 36.2554C188.498 36.2554 189.872 37.0923 192.697 37.0923C199.031 37.0923 202.211 35.2342 204.945 29.143L210.67 16.3954L213.132 16.3945L213.15 11.5715H202.39L202.084 16.6677L203.534 16.744L201.205 23.3241H201.015L197.505 16.5155L198.688 16.3254ZM225.171 16.3954C227.346 16.3954 229.14 17.3906 229.14 20.2812C229.14 23.1338 227.574 24.1609 225.171 24.1609H223.835V19.2296H216.737V31.6347H214.334V36.2936H227.04V31.6347L223.835 31.6151V29.2194H226.621C231.353 29.2194 237 26.2525 237 19.8253C237 13.9672 233.109 11.5715 226.43 11.5715H214.334V16.3954H225.171Z" fill="#AEAEAE"/>
</svg>
