<svg width="240" height="61" viewBox="0 0 240 61" fill="none" xmlns="http://www.w3.org/2000/svg">
<path d="M3.87028 0H54.16V53.2039L51.3485 54.009L28.1378 60.6573L27.0801 60.9604L26.0218 60.6573L2.812 54.009L0 53.2039V0H3.87028ZM46.4196 7.7404H7.74042V47.3765L27.0801 52.9161L46.4196 47.3765V7.7404Z" fill="white"/>
<path d="M13.3809 13.7119H39.8556V39.4219H15.5328V34.5204H16.8325V21.4927H24.5732V34.5204H32.114V18.613H13.3809V13.7119Z" fill="white"/>
<path d="M16.833 44.5038H24.5737V40.8162H16.833V44.5038Z" fill="#D32A2A"/>
<path d="M81.0897 22.4145C85.758 22.4145 87.3528 24.9814 87.3528 29.8054C87.3528 34.5903 85.7966 37.8965 81.2062 37.8965H77.9001V25.2929H70.1577V37.8965H67.6714L67.7073 42.7987H81.1283C90.8535 42.7987 95.4053 37.9747 95.4053 29.8054C95.4053 21.4029 90.5033 17.5122 81.0897 17.5122H67.7073L67.6714 22.4145H81.0897Z" fill="white"/>
<path d="M126.041 42.9336V38.2H123.53V22.7167H126.041V17.8157H116.535L106.871 31.9589H106.755L106.759 22.7167H109.27V17.8157H96.9821V22.7167H99.4162V38.2H96.9821V42.9336H106.716L116.381 28.6726L116.187 38.2H113.831V42.9336H126.041ZM128.167 42.9336C128.167 42.9336 129.21 43.7833 131.683 43.7833C137.557 43.7833 141.84 39.1293 141.924 22.7167H145.675L145.672 38.2H142.89L142.918 42.9336H155.912L155.887 38.2H153.363V22.7167H155.912V17.8157H131.761L131.413 22.7167H135.045C134.641 34.6278 132.842 36.9439 130.06 36.9439C128.979 36.9439 128.437 36.6738 128.437 36.6738L128.167 42.9336ZM186.943 42.9336V38.2H184.393V22.7167H186.943V17.8157H158.85V22.7167H161.283V38.2H158.85V42.9336H171.485V38.2H168.974V22.7167H176.702V38.2H174.229V42.9336H186.943ZM201.203 22.6456V17.8157H188.566V22.7167H191.658L199.656 36.5963C198.613 37.7941 197.609 38.1035 196.294 38.1035L195.715 34.7029L190.497 35.0496L190.884 42.8947C190.884 42.8947 192.275 43.745 195.136 43.745C201.55 43.745 204.77 41.8572 207.539 35.6686L213.336 22.7167L215.829 22.716L215.848 17.8157H204.951L204.642 22.9935L206.11 23.071L203.752 29.7564H203.559L200.005 22.8389L201.203 22.6456ZM228.021 22.7167C230.223 22.7167 232.04 23.7279 232.04 26.6649C232.04 29.5631 230.454 30.6066 228.021 30.6066H226.668V25.5964H219.48V38.2H217.047V42.9336H229.914V38.2L226.668 38.1802V35.7461H229.49C234.281 35.7461 240 32.7316 240 26.2016C240 20.2498 236.059 17.8157 229.296 17.8157H217.047V22.7167H228.021Z" fill="white"/>
</svg>
