<svg width="257" height="60" viewBox="0 0 257 60" fill="none" xmlns="http://www.w3.org/2000/svg">
<path d="M55.9319 0.225131H57.7743L60.0989 6.48747L62.4347 0.225131H64.2705L65.946 9.20307H64.1129L63.0466 3.53242L60.933 9.20307H59.2551L57.1511 3.53242L56.0638 9.20307H54.2101L55.9319 0.225131ZM70.2701 7.16897L66.7199 0.225131H68.8634L71.2204 5.24129L73.1557 0.225131H75.1117L72.4512 6.65643C71.9946 7.75268 71.4964 8.48608 70.9608 8.85927C70.4234 9.23007 69.8508 9.41578 69.2438 9.41578C68.2542 9.41578 67.3431 8.98009 66.5115 8.10897L67.7605 6.98357C68.2566 7.50455 68.7477 7.76517 69.2321 7.76517C69.4477 7.76517 69.6283 7.71936 69.7674 7.6256C69.9088 7.53369 70.0754 7.38166 70.2701 7.16897ZM80.8102 5.21827L80.5485 4.95579L77.7233 9.20307H75.4685L79.1741 3.99701L75.802 0.225131H78.0917L80.8102 3.4408V0.225131H82.7431V3.42808L85.4314 0.225131H87.7257L84.3837 4.00332L88.0594 9.20307H85.807L83.0051 4.95579L82.7431 5.21827V9.20307H80.8102V5.21827ZM98.581 1.80048L97.2482 2.93835C96.3424 2.07967 95.3245 1.65057 94.1917 1.65057C93.2366 1.65057 92.4304 1.94433 91.7767 2.52993C91.1209 3.11554 90.7938 3.83675 90.7938 4.69517C90.7938 5.29349 90.94 5.82477 91.2298 6.28748C91.5193 6.75231 91.9295 7.11704 92.4579 7.38164C92.9887 7.64623 93.5772 7.77758 94.2264 7.77758C94.7776 7.77758 95.2832 7.68597 95.7395 7.50031C96.1985 7.3149 96.7012 6.9772 97.2482 6.4896L98.5391 7.70262C97.8023 8.35074 97.1044 8.80074 96.4488 9.05103C95.7931 9.30318 95.0419 9.4282 94.2007 9.4282C92.6478 9.4282 91.3757 8.98644 90.3862 8.10074C89.3967 7.2169 88.903 6.08118 88.903 4.69941C88.903 3.80339 89.1278 3.00934 89.5794 2.31329C90.0294 1.61723 90.6733 1.05865 91.515 0.635665C92.3538 0.212418 93.2575 0 94.2288 0C95.0514 0 95.8439 0.156247 96.6085 0.468782C97.3711 0.781317 98.0293 1.2252 98.581 1.80048ZM100.261 0.225131H102.18V3.33031L104.882 0.225131H107.174L103.686 4.2327L107.513 9.20307H105.258L102.18 5.20368V9.20307H100.261V0.225131ZM111.923 0.225131H113.837L117.679 9.20307H115.703L114.924 7.35251H110.831L110.034 9.20307H108.057L111.923 0.225131ZM112.882 2.61125L111.529 5.70189H114.229L112.882 2.61125ZM125.038 0.225131V9.20307H123.146V5.57686H122.671L120.655 9.20307H118.579L120.843 5.2956C119.533 4.96002 118.877 4.17631 118.877 2.94683C118.877 2.50716 118.947 2.12573 119.084 1.8026C119.223 1.47735 119.417 1.20242 119.675 0.977293C119.93 0.752162 120.224 0.585594 120.562 0.477266C120.898 0.370792 121.165 0.308291 121.364 0.291605C121.564 0.274919 122.117 0.254266 123.026 0.225131H125.038ZM123.146 3.92624V1.90063H122.625C122.15 1.90063 121.807 1.92553 121.598 1.97771C121.392 2.02777 121.221 2.13821 121.091 2.30692C120.959 2.47564 120.894 2.68407 120.894 2.93224C120.894 3.30093 121.026 3.55942 121.288 3.70748C121.55 3.85341 121.972 3.92624 122.549 3.92624H123.146ZM135.913 0C137.325 0 138.539 0.460588 139.555 1.37965C140.572 2.29872 141.079 3.41987 141.079 4.74126C141.079 6.05205 140.579 7.16076 139.575 8.06738C138.574 8.97373 137.357 9.4282 135.927 9.4282C134.428 9.4282 133.183 8.96128 132.194 8.02977C131.202 7.09826 130.706 5.99167 130.706 4.71001C130.706 3.85346 130.938 3.06336 131.399 2.34241C131.86 1.62331 132.495 1.05229 133.301 0.631423C134.111 0.210295 134.982 0 135.913 0ZM135.886 1.6755C134.966 1.6755 134.192 1.96522 133.566 2.54235C132.938 3.11974 132.625 3.85346 132.625 4.74524C132.625 5.73741 133.019 6.52298 133.809 7.10038C134.423 7.55249 135.126 7.77758 135.92 7.77758C136.817 7.77758 137.582 7.48361 138.212 6.89801C138.845 6.3124 139.16 5.59145 139.16 4.73277C139.16 3.87834 138.843 3.15526 138.205 2.5633C137.57 1.97134 136.797 1.6755 135.886 1.6755ZM146.126 0.225131H148.048L151.274 7.60253H152.381V10.5411H150.546V9.20307H143.649V10.5411H141.814V7.60253H142.924L146.126 0.225131ZM147.105 2.58632L144.912 7.60253H149.297L147.105 2.58632ZM153.619 0.225131H159.07V1.90063H155.51V3.51364H159.07V5.16421H155.51V7.52757H159.07V9.20307H153.619V0.225131ZM165.244 5.21827L164.982 4.95579L162.157 9.20307H159.902L163.608 3.99701L160.236 0.225131H162.525L165.244 3.4408V0.225131H167.177V3.42808L169.865 0.225131H172.159L168.817 4.00332L172.493 9.20307H170.24L167.439 4.95579L167.177 5.21827V9.20307H165.244V5.21827ZM177.079 0.225131H179L182.226 7.60253H183.334V10.5411H181.499V9.20307H174.602V10.5411H172.766V7.60253H173.876L177.079 0.225131ZM178.057 2.58632L175.865 7.60253H180.249L178.057 2.58632ZM187.61 0.225131H189.524L193.367 9.20307H191.39L190.611 7.35251H186.519L185.721 9.20307H183.744L187.61 0.225131ZM188.57 2.61125L187.216 5.70189H189.916L188.57 2.61125ZM206.006 0.225131V9.20307H204.115V3.58249L200.354 9.20307H198.72V0.225131H200.611V6.02899L204.43 0.225131H206.006ZM216.885 0C218.296 0 219.51 0.460588 220.525 1.37965C221.543 2.29872 222.05 3.41987 222.05 4.74126C222.05 6.05205 221.55 7.16076 220.546 8.06738C219.545 8.97373 218.328 9.4282 216.898 9.4282C215.399 9.4282 214.154 8.96128 213.165 8.02977C212.173 7.09826 211.677 5.99167 211.677 4.71001C211.677 3.85346 211.909 3.06336 212.37 2.34241C212.831 1.62331 213.466 1.05229 214.273 0.631423C215.082 0.210295 215.953 0 216.885 0ZM216.857 1.6755C215.937 1.6755 215.163 1.96522 214.537 2.54235C213.909 3.11974 213.596 3.85346 213.596 4.74524C213.596 5.73741 213.99 6.52298 214.78 7.10038C215.394 7.55249 216.097 7.77758 216.891 7.77758C217.788 7.77758 218.553 7.48361 219.184 6.89801C219.816 6.3124 220.131 5.59145 220.131 4.73277C220.131 3.87834 219.814 3.15526 219.176 2.5633C218.542 1.97134 217.768 1.6755 216.857 1.6755ZM223.842 9.20307V0.225131H229.07V1.87544H225.733V3.61374H226.15C226.996 3.61374 227.686 3.69689 228.222 3.86375C228.759 4.03035 229.207 4.34528 229.563 4.80561C229.92 5.26832 230.099 5.81446 230.099 6.44588C230.099 7.07122 229.964 7.57127 229.698 7.94234C229.429 8.31527 229.061 8.6175 228.593 8.85296C228.122 9.0863 227.473 9.20307 226.643 9.20307H223.842ZM225.733 5.13907V7.57764H226.212C227.086 7.57764 227.64 7.4754 227.874 7.27119C228.106 7.0691 228.222 6.79391 228.222 6.448C228.222 5.57476 227.524 5.13907 226.129 5.13907H225.733ZM234.548 7.16897L230.998 0.225131H233.142L235.498 5.24129L237.434 0.225131H239.39L236.729 6.65643C236.273 7.75268 235.774 8.48608 235.239 8.85927C234.701 9.23007 234.129 9.41578 233.522 9.41578C232.532 9.41578 231.621 8.98009 230.789 8.10897L232.039 6.98357C232.535 7.50455 233.026 7.76517 233.51 7.76517C233.726 7.76517 233.907 7.71936 234.046 7.6256C234.187 7.53369 234.354 7.38166 234.548 7.16897ZM240.667 9.20307V0.225131H242.243C243.158 0.225131 243.825 0.277005 244.249 0.383478C244.85 0.527033 245.327 0.791912 245.682 1.17728C246.036 1.56504 246.215 2.02137 246.215 2.54659C246.215 2.88826 246.134 3.19894 245.974 3.4781C245.814 3.75753 245.552 4.02 245.19 4.26394C245.795 4.52006 246.238 4.83899 246.518 5.22463C246.799 5.60815 246.938 6.06236 246.938 6.58757C246.938 7.09187 246.792 7.55033 246.502 7.96511C246.21 8.37988 245.835 8.69029 245.376 8.8945C244.917 9.10082 244.284 9.20307 243.475 9.20307H240.667ZM242.558 1.85056V3.75119H242.982C243.455 3.75119 243.807 3.66378 244.036 3.48659C244.266 3.31151 244.379 3.07181 244.379 2.7696C244.379 2.48832 244.27 2.26531 244.053 2.09845C243.835 1.93397 243.503 1.85056 243.058 1.85056H242.558ZM242.558 5.27677V7.57764H243.039C243.839 7.57764 244.379 7.48785 244.657 7.3088C244.935 7.12949 245.074 6.86887 245.074 6.5272C245.074 6.14157 244.912 5.83536 244.585 5.61235C244.259 5.38934 243.716 5.27677 242.958 5.27677H242.558ZM248.731 9.20307V0.225131H250.622V3.61374H251.037C251.832 3.61374 252.495 3.69689 253.024 3.86163C253.552 4.02638 254.011 4.33892 254.395 4.79951C254.782 5.26222 254.975 5.81867 254.975 6.4689C254.975 7.08364 254.81 7.60467 254.479 8.03189C254.147 8.45911 253.765 8.76128 253.327 8.93847C252.891 9.11566 252.291 9.20307 251.531 9.20307H248.731ZM250.622 5.13907V7.57764H251.102C251.895 7.57764 252.425 7.48998 252.694 7.3149C252.963 7.13983 253.098 6.83974 253.098 6.41676C253.098 5.56444 252.405 5.13907 251.019 5.13907H250.622Z" fill="#AEAEAE"/>
<path fill-rule="evenodd" clip-rule="evenodd" d="M56.1122 12.3084C56.9963 12.4011 58.1129 12.5251 59.8554 12.6339C61.5971 12.742 63.9658 12.8355 65.8847 12.7889C67.8036 12.742 69.2738 12.556 70.6209 12.4477C71.9683 12.3396 73.1943 12.3084 74.0649 12.556C74.9355 12.8037 75.453 13.3313 75.6294 14.0901C75.8061 14.8492 75.6432 15.8409 75.0851 16.6926C74.5271 17.545 73.5746 18.2579 72.7581 18.7686C71.9415 19.2792 71.2606 19.5896 70.4713 19.7446C69.682 19.8995 68.7836 19.8995 68.0894 19.5743C67.3955 19.2488 66.9057 18.598 66.715 17.9014C66.5241 17.2041 66.6329 16.4606 66.7963 15.9958C66.9598 15.531 67.1777 15.345 66.892 15.3294C66.6062 15.314 65.8164 15.469 65.218 15.577C64.6189 15.6859 64.2108 15.7476 63.9925 15.8869C63.7751 16.0271 63.7478 16.2434 64.6867 17.8702C65.6262 19.4972 67.5313 22.5336 69.5323 25.7095C71.5331 28.8857 73.6292 32.201 74.7315 33.9671C75.8339 35.7334 75.9427 35.9504 76.0111 36.0743C76.0786 36.198 76.1062 36.2292 77.0586 34.9743C78.0113 33.7194 79.8897 31.1789 81.4004 28.8857C82.9109 26.5923 84.0543 24.5476 84.7485 22.7656C85.4425 20.9839 85.688 19.466 85.7018 18.5053C85.7153 17.5449 85.4973 17.1424 85.1299 16.832C84.762 16.5221 84.245 16.3057 83.8779 15.9026C83.51 15.5 83.2926 14.9114 83.2926 14.369C83.2926 13.8263 83.5106 13.3292 83.932 13.0052C84.3534 12.6811 84.9803 12.5251 85.8919 12.51C86.8041 12.4946 88.0015 12.6183 89.3084 12.6183C90.6149 12.6183 92.0311 12.4946 93.1057 12.4323C94.1799 12.3701 94.9157 12.3706 95.4465 12.7889C95.977 13.2068 96.3038 14.0435 96.1002 14.8026C95.8957 15.5614 95.1604 16.2439 94.6026 16.9564C94.0446 17.6686 93.6637 18.4129 91.8944 21.4027C90.1246 24.3927 86.9675 29.6289 83.8779 34.4785C80.7883 39.3281 77.7666 43.7905 75.7526 46.687C73.7386 49.5838 72.7305 50.9163 72.159 51.7843C71.5874 52.6514 71.4513 53.0545 71.3562 53.612C71.2611 54.1701 71.2062 54.8831 70.9615 55.6575C70.7168 56.432 70.2811 57.2682 69.6137 57.9502C68.947 58.6319 68.0478 59.159 67.0548 59.4686C66.0619 59.7785 64.9725 59.8712 63.7613 59.5926C62.5504 59.3137 61.2163 58.6629 60.3181 57.6559C59.4203 56.6487 58.9568 55.2854 58.3174 54.4487C57.678 53.612 56.8601 53.3029 56.1122 53.3644C55.3639 53.4258 54.6835 53.8602 54.2478 54.1544C53.8121 54.4487 53.6214 54.6037 53.717 54.2005C53.8121 53.7979 54.1932 52.8368 54.5876 52.0006C54.9823 51.1645 55.3912 50.4514 55.9493 49.8476C56.5073 49.2434 57.2156 48.7476 58.2085 48.5616C59.2017 48.3755 60.481 48.4994 61.4883 48.5148C62.4955 48.5304 63.2308 48.4377 63.9658 47.9419C64.7002 47.4461 65.4355 46.5471 66.0886 45.8193C66.7423 45.0915 67.3139 44.5334 67.7625 44.053C68.2112 43.5728 68.5386 43.1702 68.7836 42.6121C69.0283 42.0549 69.1917 41.3419 69.1239 40.7067C69.0556 40.0713 68.7563 39.514 66.0886 35.4858C63.421 31.4575 58.3852 23.9583 55.7586 20.1324C53.1317 16.3062 52.9137 16.1507 52.3829 15.9958C51.8524 15.8408 51.0078 15.6854 50.3684 15.3606C49.729 15.0359 49.2933 14.5388 49.212 13.9812C49.1307 13.424 49.4027 12.8042 49.8925 12.4477C50.3822 12.0912 51.0899 11.9988 51.7976 11.9831C52.5056 11.9675 53.2133 12.0298 53.8937 12.0912C54.5741 12.1535 55.2278 12.2157 56.1122 12.3084ZM146.257 12.0777C147.141 12.1704 148.257 12.2943 150 12.4032C151.742 12.5113 154.11 12.6047 156.029 12.5581C157.948 12.5113 159.418 12.3253 160.766 12.217C162.113 12.109 163.338 12.0777 164.209 12.3253C165.079 12.573 165.598 13.1006 165.774 13.8597C165.951 14.6185 165.788 15.6101 165.23 16.4619C164.672 17.3142 163.719 18.0273 162.903 18.5379C162.086 19.0486 161.405 19.3592 160.616 19.5139C159.827 19.6689 158.928 19.6689 158.234 19.3436C157.54 19.0181 157.05 18.3673 156.86 17.6708C156.669 16.9734 156.777 16.2299 156.941 15.7651C157.104 15.3005 157.323 15.1143 157.036 15.0987C156.751 15.0833 155.961 15.2383 155.362 15.3464C154.763 15.4552 154.355 15.5169 154.137 15.6562C153.92 15.7963 153.892 16.0127 154.831 17.6395C155.771 19.2666 157.676 22.3031 159.677 25.4791C161.678 28.655 163.774 31.9703 164.876 33.7364C165.978 35.5028 166.087 35.7199 166.156 35.8436C166.223 35.9673 166.251 35.9986 167.203 34.7436C168.156 33.4887 170.034 30.9482 171.545 28.655C173.056 26.3619 174.199 24.3169 174.893 22.5352C175.587 20.7532 175.833 19.2353 175.846 18.2746C175.859 17.3142 175.642 16.9117 175.274 16.6012C174.907 16.2913 174.39 16.075 174.022 15.6718C173.655 15.2693 173.437 14.6807 173.437 14.1383C173.437 13.5959 173.655 13.0984 174.076 12.7745C174.498 12.4506 175.125 12.2943 176.036 12.2793C176.949 12.2639 178.146 12.3876 179.453 12.3876C180.76 12.3876 182.176 12.2639 183.25 12.2017C184.325 12.1394 185.06 12.1399 185.591 12.5581C186.122 12.9761 186.449 13.8128 186.244 14.5719C186.04 15.331 185.305 16.0133 184.747 16.7257C184.189 17.438 183.808 18.1822 182.038 21.1719C180.269 24.1619 177.112 29.3982 174.022 34.2478C170.933 39.0974 167.911 43.5598 165.897 46.4566C163.883 49.3531 162.875 50.6856 162.303 51.5535C161.732 52.4207 161.596 52.8238 161.501 53.3813C161.405 53.9394 161.351 54.6516 161.106 55.4269C160.861 56.2013 160.425 57.0375 159.758 57.7195C159.092 58.4013 158.193 58.9283 157.199 59.2379C156.206 59.5478 155.117 59.6405 153.906 59.3619C152.695 59.083 151.36 58.4325 150.462 57.4252C149.564 56.4179 149.101 55.0547 148.462 54.218C147.822 53.3813 147.005 53.0723 146.257 53.1337C145.508 53.1951 144.828 53.6295 144.392 53.9238C143.957 54.218 143.766 54.373 143.861 53.9699C143.957 53.5673 144.338 52.6061 144.732 51.7699C145.127 50.9338 145.536 50.221 146.093 49.6169C146.651 49.0128 147.36 48.5169 148.352 48.331C149.346 48.1448 150.626 48.2688 151.633 48.2841C152.64 48.2997 153.375 48.207 154.11 47.7112C154.845 47.2154 155.58 46.3164 156.233 45.5886C156.887 44.8608 157.458 44.3027 157.907 43.8223C158.356 43.3421 158.683 42.9395 158.928 42.3814C159.173 41.8241 159.337 41.1111 159.269 40.476C159.2 39.8406 158.901 39.2834 156.233 35.2551C153.565 31.2269 148.53 23.7276 145.903 19.9017C143.276 16.0755 143.058 15.92 142.528 15.7651C141.997 15.6101 141.153 15.4547 140.513 15.13C139.874 14.8052 139.438 14.3086 139.357 13.7506C139.275 13.1933 139.547 12.5735 140.037 12.217C140.527 11.8605 141.234 11.7681 141.942 11.7524C142.65 11.7368 143.358 11.799 144.038 11.8605C144.719 11.9222 145.372 11.985 146.257 12.0777ZM104.733 12.51C105.917 12.6183 107.442 12.7732 108.721 12.8198C110.001 12.8659 111.035 12.8042 112.002 12.6954C112.968 12.587 113.866 12.4323 114.465 12.4633C115.064 12.4946 115.363 12.711 115.499 13.1141C115.635 13.5167 115.608 14.1057 115.295 14.6633C114.982 15.2213 114.383 15.7476 113.839 16.2278C113.294 16.708 112.804 17.1418 112.573 17.545C112.341 17.9481 112.369 18.3194 112.791 18.2267C113.212 18.1335 114.029 17.5759 115.023 16.8476C116.016 16.1195 117.187 15.2213 118.562 14.4617C119.936 13.7026 121.515 13.0831 123.175 12.7732C124.836 12.4633 126.578 12.4633 128.293 12.8355C130.008 13.2068 131.695 13.9508 133.138 14.9115C134.581 15.8721 135.779 17.0491 136.759 18.521C137.738 19.993 138.501 21.7591 139.045 23.7419C139.59 25.7251 139.916 27.9251 139.712 30.7755C139.508 33.6262 138.773 37.1274 137.793 39.6224C136.813 42.1163 135.588 43.6038 134.077 44.8121C132.567 46.0209 130.77 46.9503 129.096 47.5854C127.422 48.2205 125.87 48.5617 124.087 48.5927C122.304 48.6231 120.29 48.3445 118.82 47.833C117.35 47.3224 116.424 46.5781 115.526 45.8503C114.628 45.1219 113.757 44.4095 113.28 44.1769C112.804 43.9449 112.722 44.1923 112.695 45.6178C112.668 47.043 112.695 49.646 112.75 51.1645C112.804 52.6826 112.886 53.1162 113.226 53.4727C113.566 53.8292 114.165 54.1079 114.846 54.4178C115.526 54.7274 116.289 55.0682 116.887 55.6258C117.486 56.1838 117.921 56.9583 117.949 57.6559C117.976 58.3533 117.595 58.9728 116.765 59.3754C115.935 59.7785 114.655 59.9639 113.294 59.9949C111.933 60.0262 110.49 59.9022 109.075 59.8399C107.66 59.7785 106.271 59.7785 104.842 59.8246C103.413 59.8712 101.943 59.9639 100.99 59.9792C100.038 59.9949 99.6021 59.9334 99.1937 59.654C98.7856 59.3754 98.4047 58.8796 98.3364 58.3064C98.268 57.733 98.5133 57.0827 99.003 56.5247C99.4933 55.9666 100.229 55.5021 100.895 55.0995C101.562 54.6964 102.161 54.356 102.61 53.9373C103.059 53.5193 103.358 53.0235 103.508 47.3995C103.658 41.7754 103.658 31.024 103.658 25.4309C103.658 19.8381 103.658 19.4038 103.522 18.9087C103.386 18.4129 103.114 17.8546 102.746 17.4366C102.378 17.0179 101.916 16.7392 101.494 16.4606C101.072 16.1817 100.691 15.9025 100.391 15.5466C100.092 15.1901 99.8741 14.7565 99.8741 14.2297C99.8741 13.7026 100.092 13.0831 100.46 12.742C100.827 12.4011 101.344 12.3396 102.025 12.3396C102.705 12.3396 103.549 12.4011 104.733 12.51ZM115.227 20.3954C116.098 19.8381 117.187 19.1251 118.384 18.5676C119.582 18.0095 120.889 17.6072 122.373 17.5293C123.856 17.4523 125.516 17.6999 126.864 18.1801C128.211 18.6603 129.246 19.3733 130.035 20.2873C130.825 21.2011 131.369 22.3166 131.736 23.6801C132.104 25.0434 132.294 26.6545 132.09 28.5136C131.886 30.3732 131.287 32.4801 130.538 34.0137C129.79 35.5472 128.892 36.5079 127.789 37.2209C126.687 37.9331 125.38 38.3985 123.992 38.5682C122.604 38.7388 121.134 38.6151 120.331 38.4446C119.528 38.274 119.392 38.0576 119.446 37.3912C119.501 36.725 119.745 35.6095 119.528 34.6335C119.31 33.6572 118.629 32.8205 117.854 32.4179C117.078 32.0148 116.207 32.046 115.513 32.3557C114.819 32.6656 114.301 33.2549 113.907 33.5801C113.512 33.9056 113.24 33.9671 113.104 33.921C112.968 33.8744 112.968 33.7194 112.94 31.6895C112.913 29.6602 112.859 25.7564 112.872 23.7885C112.886 21.8209 112.968 21.7904 113.335 21.5732C113.702 21.356 114.356 20.9534 115.227 20.3954ZM196.468 11.9831C197.624 12.0602 198.577 12.2151 199.544 12.2774C200.51 12.3396 201.49 12.3084 202.143 12.2774C202.797 12.2461 203.123 12.2151 203.409 12.3396C203.695 12.4633 203.939 12.742 204.008 13.2378C204.076 13.7336 203.967 14.4461 203.926 18.3973C203.885 22.3477 203.913 29.5362 203.994 33.3319C204.076 37.1274 204.212 37.5308 204.485 37.9183C204.757 38.3052 205.165 38.6773 205.723 38.9247C206.281 39.1732 206.989 39.2969 207.982 39.2659C208.976 39.2346 210.255 39.0487 211.616 38.6305C212.977 38.2125 214.42 37.5618 215.522 37.0503C216.625 36.5389 217.387 36.167 217.713 35.9194C218.04 35.6717 217.931 35.5472 217.877 32.201C217.823 28.8545 217.823 22.2854 217.782 18.9545C217.741 15.6236 217.659 15.5309 217.224 15.3916C216.788 15.2518 215.999 15.0656 215.414 14.8026C214.828 14.5393 214.447 14.1984 214.243 13.7336C214.039 13.269 214.012 12.6797 214.338 12.293C214.665 11.9053 215.345 11.7193 216.271 11.6732C217.196 11.6266 218.367 11.7194 219.66 11.797C220.953 11.8743 222.368 11.9365 223.743 11.8743C225.118 11.8126 226.451 11.6266 227.554 11.6732C228.656 11.7193 229.527 11.9987 230.058 12.525C230.589 13.0518 230.78 13.8263 230.29 14.4617C229.8 15.0968 228.629 15.5927 228.003 16.0263C227.377 16.4606 227.295 16.8319 227.336 20.1324C227.377 23.432 227.54 29.6602 227.758 33.0064C227.976 36.3529 228.248 36.8178 228.588 37.1896C228.928 37.5618 229.337 37.8404 229.813 38.0266C230.29 38.2125 230.834 38.3053 231.705 38.2896C232.576 38.274 233.774 38.1503 235.135 37.825C236.496 37.4995 238.021 36.9727 239.096 36.5235C240.171 36.0743 240.797 35.7022 241.178 35.4858C241.559 35.2686 241.695 35.2064 241.804 35.0981C241.913 34.99 241.994 34.835 242.022 31.6434C242.049 28.4519 242.022 22.224 242.008 19.0939C241.994 15.9648 241.994 15.9336 241.532 15.7015C241.069 15.469 240.144 15.0351 239.504 14.6164C238.864 14.1984 238.51 13.7953 238.361 13.3461C238.211 12.8969 238.266 12.4011 238.674 11.9988C239.082 11.5954 239.844 11.2858 241.328 11.2397C242.812 11.1931 245.016 11.4094 247.316 11.4873C249.616 11.5644 252.012 11.5027 253.4 11.4404C254.788 11.379 255.169 11.3167 255.605 11.4717C256.041 11.6266 256.531 11.9987 256.734 12.5404C256.939 13.0831 256.857 13.7953 256.408 14.2763C255.959 14.7565 255.143 15.0042 254.475 15.2672C253.808 15.531 253.291 15.8098 252.91 16.1968C252.529 16.5843 252.284 17.0801 252.175 21.0151C252.067 24.9507 252.093 32.3247 252.107 36.2292C252.121 40.1336 252.121 40.5671 252.325 41.0163C252.529 41.4655 252.937 41.9303 253.509 42.2556C254.081 42.5811 254.816 42.7671 255.36 43.108C255.904 43.4488 256.258 43.9449 256.299 44.4094C256.34 44.8743 256.068 45.3079 255.305 45.5094C254.544 45.711 253.291 45.68 251.971 45.6021C250.651 45.5251 249.263 45.4011 247.698 45.4938C246.132 45.5865 244.39 45.8964 243.043 46.0979C241.695 46.2995 240.742 46.3922 239.967 46.3151C239.191 46.2373 238.592 45.9896 238.333 45.6178C238.075 45.2462 238.157 44.7503 238.579 44.2858C239.001 43.8204 239.763 43.3868 240.307 42.9376C240.851 42.4884 241.178 42.0236 241.014 41.7911C240.851 41.559 240.198 41.559 239.177 42.0697C238.157 42.5811 236.769 43.6037 235.584 44.3785C234.4 45.1529 233.42 45.68 231.692 46.0823C229.963 46.4854 227.486 46.7643 225.43 46.8568C223.376 46.9503 221.743 46.8568 220.721 46.6716C219.701 46.4854 219.292 46.2068 218.911 45.8037C218.53 45.4011 218.176 44.8743 217.863 44.053C217.55 43.2319 217.278 42.1163 217.074 41.6205C216.87 41.1247 216.733 41.2491 215.59 42.0702C214.447 42.8907 212.297 44.4095 210.445 45.2612C208.594 46.1136 207.043 46.2995 205.246 46.4701C203.45 46.6404 201.408 46.7953 199.747 46.625C198.087 46.4544 196.808 45.9586 195.855 45.1685C194.902 44.3785 194.276 43.2941 193.95 41.7911C193.623 40.2885 193.596 38.3674 193.596 34.153C193.596 29.9388 193.623 23.432 193.514 20.0084C193.405 16.5843 193.16 16.2434 192.602 15.9335C192.044 15.6237 191.173 15.345 190.615 14.9419C190.057 14.5393 189.812 14.0125 189.867 13.455C189.921 12.8969 190.275 12.3084 190.778 12.0446C191.282 11.7816 191.935 11.8438 192.943 11.8743C193.95 11.9053 195.311 11.9053 196.468 11.9831Z" fill="#AEAEAE"/>
<path fill-rule="evenodd" clip-rule="evenodd" d="M12.0239 1.02967H12.7843C13.8906 1.0294 15.3227 1.02755 16.4423 1.01404C17.7216 0.998683 18.5927 0.96744 19.7496 0.905462C20.9065 0.843485 22.3492 0.750523 23.4923 0.843489C24.6357 0.936455 25.4796 1.21535 25.9015 1.61821C26.3234 2.02106 26.3234 2.54788 26.1192 2.99708C25.915 3.44655 25.5069 3.81812 24.7854 4.2366C24.0642 4.65481 23.0296 5.11966 22.145 5.63084C21.2604 6.14228 20.5254 6.69981 19.8857 7.31958C19.2461 7.93936 18.7015 8.62109 18.4293 9.85427C18.17 11.0295 18.1578 12.706 18.1573 13.8129V14.6567C19.3836 14.7161 20.8406 14.7079 22.3627 14.4928C24.4453 14.1985 26.65 13.5168 28.5419 12.3085C30.4338 11.0999 32.0126 9.36456 32.938 8.23361C33.8637 7.10265 34.1357 6.57611 33.9045 5.90972C33.673 5.2436 32.938 4.43792 32.2984 3.91111C31.6587 3.38457 31.1142 3.13663 30.9373 2.71841C30.7604 2.29993 30.951 1.71114 31.2503 1.27756C31.5499 0.843719 31.958 0.564871 32.9788 0.533882C33.9996 0.502893 35.633 0.719797 37.3614 0.781775C39.0899 0.843752 40.9137 0.750798 42.3837 0.595855C43.8537 0.440912 44.9698 0.223969 45.868 0.161991C46.7664 0.100014 47.4468 0.192957 47.8687 0.549194C48.2906 0.905696 48.454 1.52525 48.0864 2.22263C47.7191 2.91974 46.8206 3.69442 45.7726 4.28321C44.7248 4.87173 43.5271 5.27458 42.4518 5.90972C41.3765 6.54512 40.4238 7.41253 39.5391 8.4815C38.6545 9.55048 37.8379 10.821 36.858 11.9056C35.878 12.99 34.7346 13.8886 33.5914 14.5858C32.448 15.2829 31.3049 15.7787 30.6788 16.0422C30.0526 16.3055 29.9438 16.3365 30.3792 16.4294C30.8149 16.5224 31.7949 16.6774 32.7611 16.9872C33.7276 17.2969 34.6803 17.7617 35.5649 18.4281C36.4495 19.0942 37.2661 19.9619 38.0829 21.0462C38.8995 22.1308 39.7161 23.4321 40.383 24.9195C41.0499 26.4067 41.5672 28.0801 42.0164 29.9702C42.4653 31.8602 42.8464 33.9674 43.146 35.6559C43.4453 37.3447 43.663 38.6152 43.9898 39.6222C44.3164 40.6292 44.7518 41.3729 45.5957 41.9771C46.4395 42.5812 47.6918 43.0461 48.7671 43.3713C49.8422 43.6968 50.7406 43.8825 51.4483 44.1614C52.156 44.4403 52.6733 44.8121 52.9863 45.3079C53.2994 45.8038 53.4082 46.4235 53.1768 46.8727C52.9455 47.3219 52.3737 47.6008 51.3529 47.6785C50.3322 47.7558 48.8622 47.6318 47.4468 47.5855C46.0314 47.5389 44.6703 47.5699 42.8737 47.6938C41.0772 47.8178 38.8449 48.0347 37.198 48.0967C35.5511 48.1587 34.4896 48.0657 33.8634 47.7248C33.2376 47.3839 33.0469 46.7954 32.9653 45.9121C32.8837 45.0291 32.9107 43.8518 32.7065 41.9307C32.5026 40.0094 32.0669 37.3447 31.5226 34.8348C30.9781 32.325 30.3249 29.9702 29.5219 27.8942C28.7188 25.818 27.7661 24.0209 26.7996 22.6886C25.8334 21.3561 24.8534 20.4885 23.8192 19.8533C22.7846 19.2182 21.6958 18.8153 20.5662 18.5674C19.7642 18.3915 18.9418 18.2935 18.1573 18.257V35.759C18.1975 36.4971 18.2235 37.1799 18.2661 37.7322C18.375 39.1418 18.5927 39.6996 18.865 40.2264C19.137 40.7532 19.4638 41.249 20.0897 41.7912C20.7158 42.3333 21.6415 42.9221 22.6485 43.4179C23.6557 43.9137 24.7446 44.3163 25.4796 44.5952C26.2146 44.8741 26.5957 45.029 26.8677 45.4009C27.14 45.7728 27.3034 46.3616 27.1673 46.8574C27.0311 47.3529 26.5957 47.7558 25.9968 47.9574C25.398 48.1587 24.6357 48.1587 23.3019 48.143C21.9681 48.1277 20.0627 48.0967 17.4766 48.0657H9.17427V48.0037C6.72432 48.0037 5.09093 48.0347 3.97508 47.9418C2.85896 47.8488 2.26011 47.6319 1.91977 47.3376C1.57969 47.0431 1.49785 46.6715 1.52513 46.2686C1.55241 45.8658 1.68854 45.4319 1.96055 45.0757C2.23283 44.7192 2.64124 44.4403 3.30816 44.1924C3.97508 43.9445 4.9005 43.7278 5.71706 43.3713C6.53389 43.0151 7.24159 42.5192 7.79965 41.9771C8.35771 41.4349 8.76586 40.8461 8.97007 40.2883C9.16447 39.7568 9.17374 39.2532 9.17427 38.1877V16.9258C9.17374 15.7903 9.16447 14.9626 8.97007 14.1209C8.76586 13.2379 8.35771 12.3392 7.9493 11.5957C7.54088 10.852 7.13273 10.2632 6.5066 9.72107C5.88047 9.17863 5.03664 8.68307 4.16551 8.32657C3.29439 7.97033 2.39624 7.75342 1.66126 7.38156C0.92627 7.00969 0.354707 6.48288 0.123219 5.73942C-0.108003 4.99569 0.000852972 4.03505 0.327425 3.33794C0.653997 2.64082 1.19855 2.20697 1.94704 1.88172C2.69553 1.55621 3.64823 1.33929 4.54664 1.18434C5.44478 1.0294 6.2889 0.936447 7.18704 0.921085C8.08544 0.905458 9.03813 0.967692 9.81391 0.998681C10.5168 1.02676 11.0746 1.0294 12.0239 1.02967Z" fill="#AEAEAE"/>
</svg>
