<svg width="231" height="90" viewBox="0 0 231 90" fill="none" xmlns="http://www.w3.org/2000/svg">
<path d="M22.3476 67.1V71.2397H40.0144V66.5088H28.9622L39.7387 55.5681V51.4285H22.6233V56.1596H33.1239L22.3476 67.1ZM0.84082 82.6515H3.45006L5.0991 86.6125H5.33931L6.98835 82.6515H9.59759V87.8007H8.04242V83.8415H7.82333L6.11156 87.8007H4.32685L2.61509 83.8415H2.396V87.8007H0.84082V82.6515ZM10.798 85.8601C10.798 85.5596 10.8605 85.3113 10.9875 85.1132C11.1146 84.9135 11.3321 84.7623 11.6382 84.6563C11.9462 84.5503 12.3618 84.4965 12.887 84.4965H14.9833C15.232 84.4965 15.4304 84.5364 15.5781 84.6163C15.7242 84.6962 15.846 84.8231 15.9435 84.9967V84.3506C15.9383 84.1021 15.8635 83.9352 15.719 83.8501C15.5747 83.7668 15.326 83.7251 14.9729 83.7251H13.1673C12.8907 83.7251 12.7098 83.7407 12.6209 83.7739C12.5323 83.8068 12.4889 83.8746 12.4889 83.977V84.142H10.8414C10.8414 83.6765 10.998 83.3118 11.3128 83.0476C11.6259 82.7836 12.1652 82.6515 12.9273 82.6515H15.4824C16.0026 82.6515 16.4253 82.7296 16.7524 82.8878C17.0794 83.046 17.316 83.2595 17.4603 83.5287C17.6048 83.7981 17.676 84.1091 17.676 84.4634V87.8007H15.9435V87.2187C15.7747 87.4394 15.6217 87.5905 15.4842 87.6756C15.3451 87.7589 15.1329 87.8007 14.8477 87.8007H12.5305C11.9877 87.8007 11.565 87.6913 11.2573 87.4707C10.951 87.2516 10.798 86.9234 10.798 86.4872V85.8601ZM13.315 85.57C13.0054 85.57 12.7898 85.6118 12.6698 85.6951C12.5498 85.7803 12.4889 85.9332 12.4889 86.1556C12.4889 86.2961 12.5132 86.4073 12.5636 86.4909C12.6141 86.5742 12.6993 86.6332 12.8193 86.6715C12.9411 86.7081 13.1045 86.7271 13.315 86.7271H15.0981C15.4147 86.7271 15.6356 86.6854 15.759 86.6021C15.8826 86.517 15.9435 86.3692 15.9435 86.1556C15.9435 85.9418 15.8808 85.7907 15.7574 85.7021C15.6338 85.6134 15.4129 85.57 15.0981 85.57H13.315ZM18.8032 87.8007V82.6515H23.9924V83.8397H20.5359V87.8007H18.8032ZM24.836 85.8601C24.836 85.5596 24.8985 85.3113 25.0255 85.1132C25.1526 84.9135 25.37 84.7623 25.6762 84.6563C25.9841 84.5503 26.3998 84.4965 26.925 84.4965H29.0213C29.2699 84.4965 29.4683 84.5364 29.6161 84.6163C29.7622 84.6962 29.884 84.8231 29.9815 84.9967V84.3506C29.9763 84.1021 29.9015 83.9352 29.757 83.8501C29.6126 83.7668 29.364 83.7251 29.0108 83.7251H27.2052C26.9286 83.7251 26.7477 83.7407 26.6589 83.7739C26.5702 83.8068 26.5268 83.8746 26.5268 83.977V84.142H24.8794C24.8794 83.6765 25.036 83.3118 25.3507 83.0476C25.6639 82.7836 26.2032 82.6515 26.9652 82.6515H29.5204C30.0406 82.6515 30.4633 82.7296 30.7903 82.8878C31.1174 83.046 31.354 83.2595 31.4983 83.5287C31.6428 83.7981 31.7139 84.1091 31.7139 84.4634V87.8007H29.9815V87.2187C29.8126 87.4394 29.6597 87.5905 29.5222 87.6756C29.3831 87.7589 29.1708 87.8007 28.8856 87.8007H26.5684C26.0257 87.8007 25.603 87.6913 25.2953 87.4707C24.9889 87.2516 24.836 86.9234 24.836 86.4872V85.8601ZM27.3529 85.57C27.0434 85.57 26.8277 85.6118 26.7077 85.6951C26.5877 85.7803 26.5268 85.9332 26.5268 86.1556C26.5268 86.2961 26.5512 86.4073 26.6016 86.4909C26.6521 86.5742 26.7373 86.6332 26.8573 86.6715C26.9791 86.7081 27.1425 86.7271 27.3529 86.7271H29.1361C29.4527 86.7271 29.6736 86.6854 29.797 86.6021C29.9206 86.517 29.9815 86.3692 29.9815 86.1556C29.9815 85.9418 29.9188 85.7907 29.7954 85.7021C29.6717 85.6134 29.4508 85.57 29.1361 85.57H27.3529ZM34.6886 87.8007H37.1517C37.6181 87.8007 38.0024 87.7537 38.3069 87.6618C38.6112 87.5696 38.8408 87.4203 38.9958 87.2117C39.1505 87.0033 39.2287 86.7305 39.2287 86.3935C39.2287 85.7421 38.9573 85.3461 38.4128 85.2053C38.8653 85.0367 39.0914 84.6788 39.0914 84.1316C39.0914 83.7825 39.0287 83.4992 38.9069 83.2839C38.7835 83.0666 38.573 82.9052 38.2756 82.7992C37.9781 82.6932 37.5728 82.6411 37.0579 82.6411H34.9582C34.4902 82.6411 34.1093 82.681 33.8189 82.7609C33.5266 82.8408 33.3057 82.9695 33.1525 83.1483C33.0012 83.3274 32.9073 83.5687 32.8725 83.8728V84.2566H34.4259V84.1524C34.4259 83.8606 34.7148 83.7146 35.2922 83.7146H36.8995C37.324 83.7146 37.5363 83.8538 37.5363 84.1316C37.5363 84.479 37.3397 84.6529 36.9431 84.6529H35.3356V85.6118H36.9431C37.4354 85.6118 37.6824 85.7993 37.6824 86.1747C37.6824 86.3554 37.6181 86.4943 37.4892 86.5864C37.3588 86.6802 37.1917 86.7271 36.9847 86.7271H34.8538C34.4834 86.7271 34.292 86.5742 34.2816 86.2684V86.1643H32.7264V86.3726C32.7594 86.8488 32.9248 87.2049 33.2257 87.4428C33.5266 87.6809 34.0136 87.8007 34.6886 87.8007ZM40.2412 87.8007V82.6515H41.7963V86.6125H41.9843L44.6126 82.6515H45.251H47.088V87.8007H45.5328V83.8415H45.3033L42.7565 87.8007H41.7963H40.2412ZM48.203 87.8007V82.6515H49.9356V84.3923H53.3903V82.6515H55.1227V87.8007H53.3903V85.5805H49.9356V87.8007H48.203ZM60.0596 82.6515H62.6689L64.3179 86.6125H64.5581L66.2072 82.6515H68.8164V87.8007H67.2612V83.8415H67.0421L65.3304 87.8007H63.5457L61.8339 83.8415H61.6148V87.8007H60.0596V82.6515ZM76.4253 82.6515L73.9933 87.7902C73.6453 88.4972 73.3706 88.9925 73.1669 89.2755C72.9635 89.5588 72.7235 89.7499 72.4486 89.8507C72.172 89.9496 71.7545 90 71.1961 90H70.9561V88.8118H71.1961C71.4484 88.8118 71.6431 88.7771 71.7806 88.7092C71.9181 88.6398 72.0224 88.5476 72.0956 88.433C72.1686 88.3166 72.2833 88.103 72.4399 87.7902H71.9686L69.5366 82.6515H71.1545L72.8349 86.3517H73.0435L74.7553 82.6515H76.4253ZM81.0281 87.8007H82.5832V85.5682H83.2198L84.8273 87.8007H86.8938L84.3993 85.0263L86.6745 82.6515H84.7227L83.2198 84.4981H82.5832V82.6515H81.0281V84.4981H80.3915L78.8884 82.6515H76.9366L79.212 85.0263L76.7175 87.8007H78.784L80.3915 85.5682H81.0281V87.8007ZM94.2815 85.9348V86.0896C94.2815 86.4752 94.2188 86.7914 94.0954 87.0396C93.9702 87.2882 93.7422 87.4759 93.4118 87.6062C93.0795 87.7365 92.615 87.8007 92.0184 87.8007H89.5535C89.1185 87.8007 88.7428 87.7138 88.4296 87.5419C88.1165 87.3699 87.8799 87.1389 87.7183 86.8488C87.5581 86.5585 87.4781 86.2389 87.4781 85.8914V84.6529C87.4781 84.036 87.6626 83.5514 88.0296 83.1953C88.3967 82.8392 88.9237 82.6619 89.6073 82.6619H91.9557C92.5159 82.6619 92.9647 82.7176 93.3022 82.8304C93.6413 82.9416 93.8902 83.1207 94.0467 83.3674C94.2031 83.6123 94.2815 83.937 94.2815 84.3383V84.4425H92.6341V84.3488C92.6341 84.1767 92.5732 84.0501 92.4516 83.9702C92.3279 83.8901 92.1209 83.8501 91.8286 83.8501H90.171C89.8648 83.8501 89.6282 83.9336 89.4612 84.1004C89.2942 84.2689 89.2108 84.5104 89.2108 84.8299V85.716C89.2108 85.9888 89.2978 86.2076 89.4698 86.3692C89.6421 86.5308 89.8614 86.6125 90.131 86.6125H91.7991C92.1141 86.6125 92.3316 86.5707 92.4479 86.4872C92.5645 86.4039 92.6236 86.265 92.6236 86.0703L92.6341 85.9348H94.2815ZM95.1615 87.8007V82.6515H96.8942V84.4965H97.5307L99.2739 82.6515H101.226L98.8146 85.0403L101.445 87.8007H99.3782L97.5307 85.57H96.8942V87.8007H95.1615ZM104.221 82.6619H106.642C107.13 82.6619 107.54 82.7489 107.876 82.9243C108.21 83.098 108.46 83.3395 108.625 83.6452C108.791 83.9527 108.878 84.302 108.886 84.6929V85.7768C108.878 86.1659 108.787 86.5133 108.617 86.8175C108.444 87.1232 108.192 87.3647 107.858 87.5383C107.524 87.7138 107.119 87.8007 106.642 87.8007H104.221C103.751 87.8007 103.344 87.7156 103.003 87.5435C102.662 87.3715 102.403 87.1318 102.226 86.8227C102.05 86.5152 101.959 86.1624 101.956 85.7664V84.6929C101.959 84.307 102.045 83.9613 102.215 83.654C102.384 83.3446 102.638 83.1031 102.977 82.9259C103.318 82.7504 103.732 82.6619 104.221 82.6619ZM107.164 84.8299C107.154 84.1767 106.782 83.8501 106.048 83.8501H104.868C104.463 83.8501 104.163 83.9284 103.974 84.0848C103.784 84.2412 103.689 84.4861 103.689 84.8195V85.6622C103.689 85.9836 103.784 86.218 103.974 86.3692C104.163 86.5186 104.463 86.5969 104.868 86.6021H106.048C106.432 86.6021 106.712 86.529 106.886 86.3849C107.062 86.2389 107.154 85.9956 107.164 85.6518V84.8299ZM110.076 87.8007V82.6515H111.631V86.6125H111.819L114.451 82.6515H115.088H116.923V87.8007H115.368V83.8415H115.138L112.593 87.8007H111.631H110.076ZM112.518 80.5564V80.6606C112.518 80.9143 112.595 81.0827 112.75 81.1644C112.905 81.2461 113.106 81.2861 113.355 81.2861C113.6 81.2861 113.802 81.2461 113.957 81.1644C114.112 81.0827 114.188 80.9143 114.188 80.6606V80.5564H115.326V80.6501C115.326 81.0098 115.262 81.2965 115.131 81.5101C115.001 81.7255 114.792 81.8819 114.505 81.9811C114.216 82.08 113.834 82.1304 113.353 82.1304C112.875 82.1304 112.491 82.08 112.204 81.9811C111.915 81.8819 111.706 81.7255 111.576 81.5101C111.447 81.2965 111.381 81.0098 111.381 80.6501V80.5564H112.518ZM121.712 87.8007V82.6515H123.267V86.6125H123.455L126.083 82.6515H126.722H128.559V87.8007H127.003V83.8415H126.774L124.227 87.8007H123.267H121.712ZM137.209 87.8007H138.764V85.5682H139.401L141.008 87.8007H143.075L140.581 85.0263L142.856 82.6515H140.904L139.401 84.4981H138.764V82.6515H137.209V84.4981H136.573L135.07 82.6515H133.118L135.393 85.0263L132.899 87.8007H134.965L136.573 85.5682H137.209V87.8007ZM148.607 84.6529H148.628C148.601 84.0344 148.274 83.7251 147.646 83.7251H146.049C145.465 83.7251 145.173 84.0344 145.173 84.6529H148.607ZM145.569 87.8111C144.874 87.8111 144.343 87.6286 143.978 87.2621C143.612 86.8974 143.43 86.4196 143.43 85.8306V84.5381C143.43 84.2151 143.506 83.9109 143.661 83.6227C143.814 83.3342 144.054 83.1014 144.379 82.9207C144.707 82.7419 145.114 82.6515 145.601 82.6515H148.064C148.847 82.6515 149.41 82.8512 149.753 83.2525C150.094 83.6522 150.266 84.1508 150.266 84.7466V85.6118H145.162V85.8097C145.162 86.4282 145.441 86.7376 145.997 86.7376H148.001C148.186 86.7376 148.333 86.6906 148.445 86.5984C148.556 86.5065 148.617 86.3831 148.628 86.2285V86.1243H150.266V86.2285C150.266 87.283 149.546 87.8111 148.105 87.8111H145.569ZM151.112 87.8007V82.6515H152.844V84.3923H156.299V82.6515H158.031V87.8007H156.299V85.5805H152.844V87.8007H151.112ZM165.816 85.9348V86.0896C165.816 86.4752 165.753 86.7914 165.63 87.0396C165.505 87.2882 165.277 87.4759 164.946 87.6062C164.614 87.7365 164.149 87.8007 163.553 87.8007H161.088C160.653 87.8007 160.277 87.7138 159.964 87.5419C159.651 87.3699 159.414 87.1389 159.253 86.8488C159.092 86.5585 159.012 86.2389 159.012 85.8914V84.6529C159.012 84.036 159.197 83.5514 159.564 83.1953C159.931 82.8392 160.458 82.6619 161.142 82.6619H163.49C164.05 82.6619 164.499 82.7176 164.837 82.8304C165.176 82.9416 165.424 83.1207 165.581 83.3674C165.737 83.6123 165.816 83.937 165.816 84.3383V84.4425H164.168V84.3488C164.168 84.1767 164.107 84.0501 163.986 83.9702C163.862 83.8901 163.655 83.8501 163.363 83.8501H161.705C161.399 83.8501 161.163 83.9336 160.996 84.1004C160.829 84.2689 160.745 84.5104 160.745 84.8299V85.716C160.745 85.9888 160.832 86.2076 161.004 86.3692C161.176 86.5308 161.396 86.6125 161.665 86.6125H163.333C163.648 86.6125 163.866 86.5707 163.982 86.4872C164.099 86.4039 164.158 86.265 164.158 86.0703L164.168 85.9348H165.816ZM166.696 87.8007V82.6515H168.428V84.4965H169.065L170.808 82.6515H172.76L170.349 85.0403L172.979 87.8007H170.913L169.065 85.57H168.428V87.8007H166.696ZM175.755 82.6619H178.177C178.664 82.6619 179.074 82.7489 179.41 82.9243C179.744 83.098 179.994 83.3395 180.16 83.6452C180.325 83.9527 180.412 84.302 180.421 84.6929V85.7768C180.412 86.1659 180.322 86.5133 180.151 86.8175C179.979 87.1232 179.727 87.3647 179.393 87.5383C179.059 87.7138 178.653 87.8007 178.177 87.8007H175.755C175.286 87.8007 174.879 87.7156 174.538 87.5435C174.197 87.3715 173.937 87.1318 173.76 86.8227C173.584 86.5152 173.494 86.1624 173.49 85.7664V84.6929C173.494 84.307 173.579 83.9613 173.75 83.654C173.918 83.3446 174.172 83.1031 174.511 82.9259C174.852 82.7504 175.266 82.6619 175.755 82.6619ZM178.699 84.8299C178.688 84.1767 178.316 83.8501 177.582 83.8501H176.402C175.997 83.8501 175.698 83.9284 175.508 84.0848C175.319 84.2412 175.223 84.4861 175.223 84.8195V85.6622C175.223 85.9836 175.319 86.218 175.508 86.3692C175.698 86.5186 175.997 86.5969 176.402 86.6021H177.582C177.966 86.6021 178.246 86.529 178.42 86.3849C178.596 86.2389 178.688 85.9956 178.699 85.6518V84.8299ZM181.611 87.8007V82.6515H183.166V86.6125H183.353L185.985 82.6515H186.622H188.457V87.8007H186.902V83.8415H186.672L184.128 87.8007H183.166H181.611ZM184.053 80.5564V80.6606C184.053 80.9143 184.129 81.0827 184.284 81.1644C184.439 81.2461 184.641 81.2861 184.89 81.2861C185.135 81.2861 185.337 81.2461 185.491 81.1644C185.646 81.0827 185.723 80.9143 185.723 80.6606V80.5564H186.86V80.6501C186.86 81.0098 186.796 81.2965 186.666 81.5101C186.535 81.7255 186.326 81.8819 186.039 81.9811C185.75 82.08 185.368 82.1304 184.888 82.1304C184.409 82.1304 184.025 82.08 183.738 81.9811C183.449 81.8819 183.241 81.7255 183.11 81.5101C182.981 81.2965 182.915 81.0098 182.915 80.6501V80.5564H184.053ZM195.501 82.6619H197.922C198.409 82.6619 198.82 82.7489 199.155 82.9243C199.489 83.098 199.74 83.3395 199.905 83.6452C200.07 83.9527 200.157 84.302 200.166 84.6929V85.7768C200.157 86.1659 200.067 86.5133 199.896 86.8175C199.724 87.1232 199.472 87.3647 199.138 87.5383C198.804 87.7138 198.399 87.8007 197.922 87.8007H195.501C195.031 87.8007 194.624 87.7156 194.283 87.5435C193.942 87.3715 193.683 87.1318 193.505 86.8227C193.33 86.5152 193.239 86.1624 193.236 85.7664V84.6929C193.239 84.307 193.325 83.9613 193.495 83.654C193.664 83.3446 193.918 83.1031 194.257 82.9259C194.598 82.7504 195.012 82.6619 195.501 82.6619ZM198.444 84.8299C198.433 84.1767 198.061 83.8501 197.327 83.8501H196.148C195.742 83.8501 195.443 83.9284 195.254 84.0848C195.064 84.2412 194.968 84.4861 194.968 84.8195V85.6622C194.968 85.9836 195.064 86.218 195.254 86.3692C195.443 86.5186 195.742 86.5969 196.148 86.6021H197.327C197.711 86.6021 197.992 86.529 198.166 86.3849C198.341 86.2389 198.433 85.9956 198.444 85.6518V84.8299ZM201.335 85.7873V83.1311C201.335 82.5126 201.519 82.0244 201.886 81.6665C202.253 81.3086 202.78 81.1297 203.464 81.1297H205.833C206.018 81.1297 206.165 81.0827 206.277 80.989C206.39 80.8968 206.451 80.7718 206.461 80.619V80.5546H207.806V80.619C207.792 81.6751 207.068 82.2032 205.635 82.2032H203.852C203.546 82.2032 203.311 82.2868 203.147 82.4534C202.984 82.6202 202.902 82.8635 202.902 83.183V83.8519C203.088 83.5635 203.301 83.3412 203.539 83.1867C203.777 83.0319 204.113 82.9538 204.55 82.9538H206.094C206.553 82.9538 206.954 83.0356 207.295 83.2006C207.634 83.3656 207.893 83.6018 208.07 83.9093C208.25 84.2166 208.338 84.5798 208.338 84.9967L208.349 85.7889C208.34 86.1747 208.251 86.5204 208.079 86.8243C207.909 87.1266 207.656 87.3663 207.321 87.5401C206.985 87.7138 206.58 87.8007 206.105 87.8007H203.6C203.128 87.8007 202.721 87.7156 202.382 87.5454C202.043 87.3767 201.785 87.1404 201.61 86.8365C201.436 86.5324 201.344 86.1833 201.335 85.7873ZM204.257 86.6125H205.426C205.845 86.6125 206.148 86.5324 206.336 86.3726C206.522 86.211 206.616 85.9679 206.616 85.6431V85.0072C206.616 84.6858 206.524 84.4425 206.338 84.2775C206.153 84.1109 205.849 84.0274 205.426 84.0274H204.257C203.901 84.0274 203.614 84.1334 203.394 84.3435C203.177 84.5537 203.067 84.7988 203.067 85.0802V85.6431C203.086 85.928 203.2 86.1606 203.408 86.3413C203.617 86.5222 203.901 86.6125 204.257 86.6125ZM215.916 82.6515L213.484 87.7902C213.136 88.4972 212.861 88.9925 212.657 89.2755C212.454 89.5588 212.214 89.7499 211.939 89.8507C211.662 89.9496 211.245 90 210.686 90H210.446V88.8118H210.686C210.939 88.8118 211.133 88.7771 211.271 88.7092C211.408 88.6398 211.513 88.5476 211.586 88.433C211.659 88.3166 211.774 88.103 211.93 87.7902H211.459L209.027 82.6515H210.645L212.325 86.3517H212.534L214.246 82.6515H215.916ZM216.458 87.8007V82.6411H220.811C221.326 82.6411 221.731 82.6932 222.028 82.7992C222.326 82.9052 222.536 83.0666 222.66 83.2839C222.783 83.4992 222.844 83.7825 222.844 84.1316C222.844 84.6788 222.618 85.0367 222.167 85.2053C222.71 85.3461 222.982 85.7421 222.982 86.3935C222.982 86.7287 222.903 87.0016 222.745 87.2101C222.588 87.4185 222.359 87.5696 222.056 87.6618C221.753 87.7537 221.374 87.8007 220.915 87.8007H216.458ZM218.191 85.6118V86.7271H220.738C220.945 86.7271 221.113 86.6802 221.242 86.5864C221.371 86.4943 221.435 86.3554 221.435 86.1747C221.435 85.7993 221.19 85.6118 220.696 85.6118H218.191ZM218.191 83.7146V84.6529H220.698C221.093 84.6529 221.291 84.479 221.291 84.1316C221.291 83.8538 221.079 83.7146 220.654 83.7146H218.191ZM223.994 87.8007V82.6515H225.549V86.6125H225.737L228.365 82.6515H229.004H230.841V87.8007H229.286V83.8415H229.056L226.509 87.8007H225.549H223.994ZM144.642 30.0503C144.642 32.2448 144.181 34.1706 143.257 35.8266C142.334 37.4828 141.062 38.7699 139.441 39.6875C137.82 40.6054 136.056 41.284 134.148 41.7232C132.24 42.1617 130.199 42.3814 128.024 42.3814H123.119V32.3043H126.756C131.528 32.3043 134.18 31.6711 134.07 28.376C133.953 24.8791 131.634 24.4229 126.669 24.4229H120.822L120.813 30.379H110.656L110.666 22.5139L114.767 17.6237L120.822 11.4765V16.8811H126.485C128.94 16.8811 132.668 16.0066 132.668 12.8892C132.668 10.1359 130.439 8.90048 125.967 8.90048H122.531V0H128.024C129.87 0 131.604 0.169547 133.225 0.508634C134.846 0.848176 136.415 1.40654 137.933 2.18504C139.451 2.96307 140.652 4.1004 141.534 5.59724C142.416 7.09385 142.857 8.85943 142.857 10.8946C142.857 13.1695 142.221 15.0849 140.949 16.6416C139.677 18.1977 137.933 19.3353 135.717 20.0536V20.1732C138.344 20.6124 140.488 21.6996 142.149 23.4356C143.812 25.1715 144.642 27.3764 144.642 30.0503ZM83.5259 33.5542V42.3816H121.198V32.293H97.6312L120.611 8.96312V0.135736H84.1141V10.2244H106.506L83.5259 33.5542ZM59.6378 62.3692C59.6378 58.1408 57.4329 55.8638 51.2867 55.8638C49.192 55.8638 46.4635 56.1301 44.5617 56.6031V61.0384C46.4635 60.447 49.192 60.1514 51.149 60.1514C54.7871 60.1514 55.1728 61.0384 55.228 62.6056C53.9326 62.2212 52.4719 62.0437 50.6252 62.0437C44.8926 62.0437 43.0459 64.0841 43.0459 66.5678V66.8635C43.0459 69.4952 44.7547 71.8311 50.7079 71.8311C53.2435 71.8311 55.2005 71.3581 57.047 70.3232L58.5354 71.2397H59.6378V62.3692ZM51.1765 68.135C47.6762 68.135 47.4557 67.6028 47.4557 66.893C47.4557 66.3018 47.6212 65.5921 50.9008 65.5921C52.6096 65.5921 53.9878 65.7695 55.228 66.1243V67.514C53.9878 67.928 52.6649 68.135 51.1765 68.135ZM73.9694 56.0708C73.2803 55.9526 72.5088 55.8638 71.6543 55.8638C69.2566 55.8638 67.2996 56.3666 65.5358 57.4015L64.0475 56.4553H62.945V71.2397H67.3549V60.9202C68.5676 60.5062 69.8905 60.2992 71.4063 60.2992C72.3158 60.2992 73.1701 60.3879 73.9694 60.5357V56.0708ZM76.7255 64.4388C76.7255 68.5195 78.4343 71.8311 84.6079 71.8311H85.3797C91.5534 71.8311 93.2622 68.5195 93.2622 64.4388V63.2561C93.2622 59.1755 91.5534 55.8638 85.3797 55.8638H84.6079C78.4343 55.8638 76.7255 59.1755 76.7255 63.2561V64.4388ZM81.1353 63.8476C81.1353 61.9254 81.1353 60.1514 84.9939 60.1514C88.8524 60.1514 88.8524 61.9254 88.8524 63.8476C88.8524 65.7695 88.8524 67.5438 84.9939 67.5438C81.1353 67.5438 81.1353 65.7695 81.1353 63.8476ZM104.011 51.4285V71.2397C107.153 71.6242 110.763 71.8311 114.098 71.8311H114.87C121.485 71.8311 123.304 69.17 123.304 65.9173V65.326C123.304 63.5814 122.367 62.0142 119.473 61.3045C121.953 60.595 122.752 59.087 122.752 57.3423V56.7508C122.752 53.4984 121.044 50.8372 114.87 50.8372H114.098C110.763 50.8372 107.153 51.044 104.011 51.4285ZM114.209 55.5681C118.205 55.5681 118.343 56.3666 118.343 57.3423C118.343 58.3478 118.343 59.1165 113.878 59.1165H108.972V55.8343C110.791 55.6569 112.858 55.5681 114.209 55.5681ZM113.878 63.8476C118.894 63.8476 118.894 64.4981 118.894 65.326C118.894 66.3018 118.701 67.1 114.291 67.1C112.83 67.1 110.791 67.0113 108.972 66.834V63.8476H113.878ZM143.203 62.3692C143.203 58.1408 140.998 55.8638 134.852 55.8638C132.757 55.8638 130.029 56.1301 128.127 56.6031V61.0384C130.029 60.447 132.757 60.1514 134.714 60.1514C138.352 60.1514 138.738 61.0384 138.793 62.6056C137.498 62.2212 136.037 62.0437 134.19 62.0437C128.458 62.0437 126.611 64.0841 126.611 66.5678V66.8635C126.611 69.4952 128.32 71.8311 134.273 71.8311C136.809 71.8311 138.766 71.3581 140.612 70.3232L142.1 71.2397H143.203V62.3692ZM134.742 68.135C131.241 68.135 131.021 67.6028 131.021 66.893C131.021 66.3018 131.186 65.5921 134.466 65.5921C136.175 65.5921 137.553 65.7695 138.793 66.1243V67.514C137.553 67.928 136.23 68.135 134.742 68.135ZM146.51 67.6915V71.2397H161.503V67.1H153.125L161.228 60.0035V56.4553H146.786V60.595H154.613L146.51 67.6915ZM173.052 71.8311C175.146 71.8311 177.875 71.5651 179.776 71.0919V66.6565C177.875 67.248 175.091 67.5438 173.355 67.5438C169.689 67.5438 169.138 66.4791 169.055 64.7936C170.295 65.1781 171.673 65.326 173.327 65.326C180.217 65.326 180.879 63.2561 180.879 60.8907V60.595C180.879 57.9928 179.583 55.8638 173.299 55.8638H172.528C166.354 55.8638 164.645 59.1755 164.645 63.2561V64.4388C164.645 68.5195 166.354 71.8311 172.528 71.8311H173.052ZM173.327 59.56C176.304 59.56 176.469 60.3879 176.469 60.9497C176.469 61.4819 176.276 62.0734 173.052 62.0734C171.453 62.0734 170.268 61.9254 169.193 61.6299C169.468 60.2992 170.405 59.56 173.327 59.56ZM184.6 49.063V71.2397H189.009V51.1327L185.702 49.063H184.6ZM192.868 49.063V71.2397H197.278V51.1327L193.97 49.063H192.868ZM201.136 56.4553V71.2397H205.546V58.525L202.239 56.4553H201.136ZM200.861 51.6355C200.861 52.8479 201.384 53.8531 203.231 53.8531H203.451C205.298 53.8531 205.822 52.8479 205.822 51.6355V51.2807C205.822 50.0683 205.298 49.063 203.451 49.063H203.231C201.384 49.063 200.861 50.0683 200.861 51.2807V51.6355Z" fill="#AEAEAE"/>
</svg>
