<svg width="223" height="90" viewBox="0 0 223 90" fill="none" xmlns="http://www.w3.org/2000/svg">
<path fill-rule="evenodd" clip-rule="evenodd" d="M121.001 18.0222C120.337 14.8048 102.73 14.6866 98.991 14.5518C95.465 14.4243 91.9175 14.3973 88.3966 14.5845C89.8162 10.5637 97.3809 3.83168 97.0383 0.475026C93.9013 -0.260283 89.9141 6.85762 86.9129 11.0937C85.2803 13.3975 83.799 14.6461 80.173 14.9462C75.7731 15.3103 70.3735 15.0789 64.7586 15.6314C63.0803 15.7395 61.1645 16.0152 60.3233 16.2602C57.0086 17.2284 58.2134 18.3182 60.8301 18.495C65.6189 18.82 76.7833 18.2144 81.2838 18.1225C78.935 25.8362 44.523 64.2389 48.1221 70.0384C50.271 69.4033 51.9783 66.4578 53.4413 64.5586C58.3242 58.221 83.5853 18.8845 85.8356 18.0318C89.6549 18.0157 93.4734 17.9991 97.2925 17.9832C97.6914 17.9817 98.0506 17.9773 98.3719 17.9722C102.524 17.9091 119.026 19.3464 121.001 18.0222ZM91.1456 72.0291C100.199 72.0291 107.539 64.6781 107.539 55.6109C107.539 46.5433 100.199 39.1923 91.1456 39.1923C82.0917 39.1923 74.7519 46.5433 74.7519 55.6109C74.7519 64.6781 82.0917 72.0291 91.1456 72.0291ZM80.1685 63.5378C81.7685 62.6316 83.1769 63.1699 84.4416 58.8625C86.0111 53.9229 88.4364 53.0713 92.2818 55.1108C89.6365 55.8232 89.0561 55.8098 87.7524 60.9396C85.9409 65.1587 83.0794 64.3372 80.1685 63.5378ZM88.8228 50.5786L89.9499 47.9386L95.8565 61.7345L95.9193 61.8804L95.9218 61.8869L96.5918 63.4459H95.4615C95.2584 63.4459 95.0931 63.612 95.0931 63.8148V63.816C95.0931 64.0188 95.2584 64.1843 95.4615 64.1843H101.753C101.957 64.1843 102.122 64.0188 102.122 63.816V63.8148C102.122 63.612 101.957 63.4459 101.753 63.4459H100.679L100.654 63.3883L100.516 63.0691L100.378 62.7498L100.24 62.4299L100.103 62.1107L100 61.8731L91.8299 42.9465C91.6699 42.5042 91.5086 42.4984 91.3066 42.9465L90.3113 45.2342L90.3039 45.231L89.845 46.3057L89.5462 46.9925L89.5489 46.999L88.1443 50.2884C88.0644 50.4754 88.1518 50.6928 88.3383 50.7724L88.3389 50.7728C88.5257 50.853 88.7427 50.7656 88.8228 50.5786ZM198.721 79.7404C199.348 78.0278 200.154 77.2751 201.408 76.2526C202.354 75.4825 203.779 74.3129 205.057 73.8764C206.357 77.0902 201.418 79.2656 198.721 79.7404ZM166.667 70.8064C166.603 70.2356 166.584 69.6665 166.605 69.1052C166.418 68.8919 166.09 68.8129 165.552 69.2262C163.436 71.3994 157.543 73.9779 155.487 70.765C154.56 67.8672 156.375 66.8797 155.471 65.0336C153.022 66.1676 148.633 71.5393 146.45 73.6582C142.254 77.7298 140.039 82.9209 138.329 82.6322C135.871 79.2386 143.868 71.5489 145.094 67.5628C141.311 69.0507 137.53 70.5393 133.748 72.0274C134.261 80.3692 129.847 83.4626 124.393 86.4255C120.041 88.79 110.928 91.7985 105.525 88.6327C102.842 87.0606 103.159 83.1886 105.435 80.8689C110.094 76.1214 123.296 72.904 129.701 70.3907C126.739 59.1688 98.4279 48.7473 132.091 38.4513C136.21 37.1917 141.424 35.7486 145.778 35.4602C151.134 35.104 155.381 37.6064 152.939 43.4119C151.864 45.4981 149.213 48.4883 146.288 48.5042C145.378 48.5093 145.199 48.1627 145.175 47.1767C145.072 43.0718 149.442 41.9536 148.844 40.0769C148.769 39.8406 148.178 39.6969 147.961 39.644C142.189 38.4498 109.279 42.0349 125.612 59.7024C127.717 61.9801 131.539 66.0494 132.728 69.282C136 68.7142 144.271 65.4172 146.939 63.9793C148.787 62.9829 152.945 56.8839 154.272 54.5476C156.218 51.1192 168.565 32.1767 170.502 33.2687C171.469 33.801 162.368 46.6539 160.832 49.0823C157.512 54.364 154.192 59.646 150.872 64.9277C152.167 64.0192 154.486 62.0345 156.355 62.2839C159.43 62.6944 158.178 66.2009 158.34 68.8868C158.385 69.6281 158.358 69.6389 159.152 69.554C161.41 69.3154 165.2 67.0676 167.345 65.4722C168.449 62.5927 170.669 60.4834 173.288 60.4413C174.774 60.4246 176.771 61.1143 177.143 63.0867C177.198 63.7821 177.174 64.4823 177.08 65.1735C177.105 65.2707 177.161 65.3389 177.294 65.3446C186.526 67.4917 188.609 58.9194 192.91 62.3331C194.01 64.4187 192.372 66.5889 191.079 67.7738C189.498 69.2232 187.961 69.4039 186.813 70.7932C191.387 71.8208 199.095 66.7006 202.31 63.241C203.051 62.4441 203.707 61.9495 204.723 61.4624C205.702 60.9932 206.944 60.9149 207.392 61.352C209.703 65.0307 202.639 63.4889 206.151 69.5758C208.817 68.9696 220.242 61.7022 222.932 63.2092C223.379 64.6885 221.558 64.8341 219.505 65.5868C215.339 67.1147 211.763 69.1479 208.049 71.5633C208.499 76.0041 208.087 77.7362 204.974 79.8494C196.209 85.7968 193.096 80.2815 197.969 75.6088C199.223 74.4065 201.286 72.7533 203.019 72.1636C202.334 70.5423 201.647 68.9216 200.961 67.3011C198.931 68.251 195.919 71.4814 191.315 73.1303C186.057 75.0128 183.348 72.6612 183.833 67.2402C180.465 67.908 180.203 67.8738 176.525 67.4236C175.301 70.828 172.5 73.5568 169.548 73.6175C168.066 73.6582 166.624 72.5742 166.667 70.8064ZM168.989 70.0072C169.367 67.4786 170.406 65.5904 171.982 63.8617C172.644 63.3121 173.565 63.3244 173.554 63.8995C172.646 64.7443 173.142 66.4932 173.932 66.3387C173.882 66.3903 173.45 69.0029 170.635 70.6446C169.886 71.3667 168.929 70.6903 168.989 70.0072ZM186.968 67.1973C187.577 66.2357 188.261 65.3728 189.502 64.6225C189.959 64.3455 190.241 64.7965 189.918 65.2119C189.208 66.1292 188.37 66.8957 187.365 67.5773C187.043 67.7868 186.768 67.4882 186.968 67.1973ZM107.071 85.7496C107.062 85.5161 107.084 85.282 107.133 85.0498C108.426 78.8559 128.927 73.0454 130.627 73.1702C130.919 83.6193 112.95 89.088 107.536 86.0557C107.369 85.9621 107.213 85.8598 107.071 85.7496ZM22.8834 26.871C24.7804 23.2505 40.5089 4.32606 46.3699 5.61476C46.5248 9.94956 40.8325 21.7742 38.7344 24.5621C33.4512 25.3316 28.1673 26.1009 22.8834 26.871ZM40.3272 28.839C44.3608 28.4248 54.7896 28.2624 57.7617 26.6069C57.0095 23.7863 45.3939 24.4033 42.6724 24.3505C44.3339 18.2789 51.0529 11.8659 50.5947 4.27745C49.6627 -11.1611 24.0042 19.8648 20.8597 23.7175C17.2861 28.0943 18.884 27.7867 12.2453 29.3C9.42595 29.9375 6.60809 30.5749 3.78875 31.2124C1.73623 31.9331 0.135388 33.5915 3.25082 34.0171C5.33894 34.302 11.268 32.7632 13.6586 32.2962C12.5581 36.4833 -0.663233 50.0184 0.0260243 53.8013C2.72668 54.0828 3.37248 51.4542 7.13161 46.5669C11.9507 40.3025 16.6445 31.7184 21.8307 30.8744C26.0887 30.1812 31.3972 29.3066 35.9969 29.1514C34.9723 32.8575 21.6128 53.1893 17.6233 59.9483C16.5033 61.8466 11.538 69.1923 12.9579 70.6504C15.022 72.7707 22.1037 60.165 23.514 57.8272C25.8236 54.0399 28.1325 50.2534 30.4421 46.466C33.3643 41.3545 37.2328 32.5849 40.3272 28.839ZM41.1837 44.7517C39.6763 47.4369 39.0248 49.753 39.5771 51.3975C41.4843 52.2018 42.8736 48.7842 44.6764 45.87C46.3286 42.7961 49.9654 39.2575 53.548 39.3127C54.8461 39.2503 57.2265 39.3418 58.3227 38.6245C57.1782 35.4659 54.025 35.9134 51.1847 36.8747C50.4433 35.3137 50.0442 33.6132 48.0504 34.7074C46.8463 35.1795 42.1256 43.3117 41.1837 44.7517Z" fill="#AEAEAE"/>
</svg>
