<svg width="188" height="40" viewBox="0 0 188 40" fill="none" xmlns="http://www.w3.org/2000/svg">
<path d="M8.74609 8.96313H26.0516V25.7687H10.1527V22.5648H11.0023V14.0491H16.0621V22.5648H20.9912V12.1668H8.74609V8.96313Z" fill="white"/>
<path d="M11.0029 29.0899H16.0627V26.6794H11.0029V29.0899Z" fill="#D32A2A"/>
<path d="M2.52985 0H35.4023V34.7773L33.5645 35.3036L18.3926 39.6493L17.7012 39.8474L17.0094 39.6493L1.8381 35.3036L0 34.7773V0H2.52985ZM30.3427 5.05959H5.05961V30.9682L17.7012 34.5892L30.3427 30.9682V5.05959Z" fill="white"/>
<path d="M55.537 13.0291C59.4108 13.0291 60.7343 15.1788 60.7343 19.2185C60.7343 23.2256 59.4429 25.9943 55.6337 25.9943H52.8902V15.4397H46.4655V25.9943H44.4023L44.4322 30.0995H55.5691C63.6392 30.0995 67.4163 26.0598 67.4163 19.2185C67.4163 12.182 63.3486 8.92383 55.537 8.92383H44.4322L44.4023 13.0291H55.537Z" fill="white"/>
<path d="M92.8381 30.2122V26.2481H90.7539V13.2819H92.8381V9.17768H84.9494L76.9302 21.0216H76.8341L76.8371 13.2819H78.9212V9.17768H68.7244V13.2819H70.7443V26.2481H68.7244V30.2122H76.802L84.8218 18.2696L84.6611 26.2481H82.7056V30.2122H92.8381ZM94.6018 30.2122C94.6018 30.2122 95.4674 30.9238 97.5194 30.9238C102.394 30.9238 105.948 27.0264 106.018 13.2819H109.13L109.128 26.2481H106.82L106.843 30.2122H117.625L117.604 26.2481H115.51V13.2819H117.625V9.17768H97.5844L97.2954 13.2819H100.31C99.9746 23.2567 98.4819 25.1962 96.173 25.1962C95.2755 25.1962 94.8261 24.9701 94.8261 24.9701L94.6018 30.2122ZM143.375 30.2122V26.2481H141.259V13.2819H143.375V9.17768H120.063V13.2819H122.082V26.2481H120.063V30.2122H130.548V26.2481H128.464V13.2819H134.877V26.2481H132.825V30.2122H143.375ZM155.208 13.2224V9.17768H144.722V13.2819H147.288L153.925 24.9052C153.059 25.9082 152.226 26.1674 151.135 26.1674L150.655 23.3196L146.325 23.6099L146.645 30.1797C146.645 30.1797 147.8 30.8917 150.173 30.8917C155.496 30.8917 158.168 29.3108 160.466 24.1283L165.276 13.2819L167.346 13.2813L167.361 9.17768H158.319L158.062 13.5137L159.28 13.5786L157.323 19.1772H157.164L154.214 13.3843L155.208 13.2224ZM177.462 13.2819C179.29 13.2819 180.797 14.1288 180.797 16.5883C180.797 19.0154 179.482 19.8892 177.462 19.8892H176.34V15.6935H170.375V26.2481H168.356V30.2122H179.033V26.2481L176.34 26.2316V24.1932H178.681C182.657 24.1932 187.402 21.6688 187.402 16.2003C187.402 11.2161 184.132 9.17768 178.52 9.17768H168.356V13.2819H177.462Z" fill="white"/>
</svg>
