<svg width="16" height="17" viewBox="0 0 16 17" fill="none" xmlns="http://www.w3.org/2000/svg">
<path d="M10.666 2.80908C10.9421 2.80908 11.166 3.03296 11.166 3.30908C11.166 3.58522 10.9422 3.80908 10.666 3.80908H9.90918L10.4238 7.41162C10.6816 7.55176 10.925 7.71566 11.1484 7.90186C11.9987 8.61052 12.4999 9.59307 12.5 10.6421C12.5 10.7747 12.4473 10.9018 12.3535 10.9956C12.2597 11.0894 12.1326 11.1421 12 11.1421H4C3.86739 11.1421 3.74025 11.0894 3.64648 10.9956C3.55274 10.9018 3.5 10.7747 3.5 10.6421C3.50014 9.59307 4.00132 8.61052 4.85156 7.90186C5.07439 7.71617 5.31683 7.5518 5.57422 7.41162L6.08984 3.80908H5.33301C5.05702 3.80891 4.83301 3.58512 4.83301 3.30908C4.83303 3.03307 5.05703 2.80926 5.33301 2.80908H10.666ZM6.52832 7.81104C6.50437 7.97736 6.39813 8.1203 6.24609 8.19189C5.97024 8.32169 5.71658 8.4825 5.49219 8.66943C4.99422 9.08441 4.67772 9.60038 4.55664 10.1421H11.4434C11.3223 9.60038 11.0058 9.08441 10.5078 8.66943C10.2835 8.48259 10.0294 8.32192 9.75293 8.19189C9.60072 8.12022 9.49449 7.97662 9.4707 7.81006L8.89941 3.80908H7.10059L6.52832 7.81104Z" fill="black"/>
<path d="M8 10.6426V13.9759" stroke="black" stroke-linecap="round" stroke-linejoin="round"/>
</svg>
