<svg width="17" height="14" viewBox="0 0 17 14" fill="none" xmlns="http://www.w3.org/2000/svg">
<path d="M10.2976 2.11944C8.77503 2.74875 5.73205 4.05126 1.16866 6.02697C0.427638 6.3198 0.0394565 6.60627 0.0041184 6.88638C-0.0556033 7.35978 0.540968 7.54619 1.35335 7.80003C1.46385 7.83456 1.57835 7.87034 1.69573 7.90825C2.49498 8.16643 3.57012 8.46846 4.12904 8.48046C4.63604 8.49135 5.2019 8.28364 5.82663 7.85735C10.0904 4.9973 12.2913 3.55169 12.4295 3.52052C12.527 3.49854 12.6621 3.47089 12.7536 3.55173C12.8451 3.63258 12.8361 3.78568 12.8264 3.82675C12.7673 4.07711 10.4256 6.24055 9.2137 7.36014C8.8359 7.70916 8.56791 7.95674 8.51313 8.01329C8.39042 8.13995 8.26534 8.25976 8.14514 8.37491C7.40261 9.08622 6.84579 9.61963 8.17597 10.4907C8.8152 10.9093 9.32672 11.2554 9.83702 11.6008C10.3943 11.9779 10.9502 12.3541 11.6694 12.8226C11.8526 12.9419 12.0276 13.0659 12.198 13.1866C12.8466 13.6461 13.4293 14.0589 14.1492 13.9931C14.5674 13.9548 14.9995 13.564 15.2189 12.3983C15.7375 9.64338 16.7569 3.67437 16.9924 1.21469C17.0131 0.999189 16.9871 0.723392 16.9663 0.602324C16.9454 0.481255 16.9018 0.308757 16.7435 0.181063C16.5559 0.0298341 16.2664 -0.0020569 16.1369 9.99094e-05C15.5481 0.0105164 14.6448 0.32264 10.2976 2.11944Z" fill="white"/>
</svg>
