<svg width="18" height="18" viewBox="0 0 18 18" fill="none" xmlns="http://www.w3.org/2000/svg">
<path fill-rule="evenodd" clip-rule="evenodd" d="M15.3 2.5875C13.6125 0.900003 11.3625 0 9 0C4.05 0 0 4.05 0 9C0 10.575 0.45001 12.15 1.23751 13.5L0 18L4.72501 16.7625C6.07501 17.4375 7.5375 17.8875 9 17.8875C13.95 17.8875 18 13.8375 18 8.8875C18 6.525 16.9875 4.275 15.3 2.5875ZM5.17501 15.4125C6.30001 16.0875 7.65 16.425 9 16.425C13.1625 16.425 16.425 13.05 16.425 9.1125C16.425 7.0875 15.75 5.2875 14.2875 3.825C12.825 2.475 11.025 1.6875 9 1.6875C4.95 1.6875 1.57499 5.0625 1.57499 9.1125C1.57499 10.4625 1.9125 11.8125 2.69999 13.05L2.92501 13.3875L2.13749 16.0875L4.94999 15.3L5.17501 15.4125Z" fill="white"/>
<path d="M13.05 10.8C12.825 10.6875 11.7 10.125 11.475 10.125C11.25 10.0125 11.1375 10.0125 11.025 10.2375C10.9687 10.35 10.8281 10.5187 10.6875 10.6875C10.5469 10.8563 10.4063 11.025 10.35 11.1375C10.2375 11.25 10.125 11.25 9.89999 11.25C9.86486 11.2324 9.81877 11.2121 9.76257 11.1874C9.45876 11.0535 8.85951 10.7896 8.10001 10.125C7.42502 9.5625 6.97501 8.775 6.86251 8.55C6.75001 8.325 6.86252 8.2125 6.97501 8.1L7.3125 7.7625C7.36875 7.70626 7.39688 7.65 7.42501 7.59375C7.45313 7.5375 7.48126 7.48124 7.53751 7.425C7.61251 7.35 7.58751 7.275 7.56251 7.2C7.55001 7.1625 7.53751 7.125 7.53751 7.0875C7.53751 6.975 7.0875 5.85 6.86251 5.4C6.75001 5.0625 6.52501 5.0625 6.41251 5.0625H5.96249C5.84999 5.0625 5.62498 5.0625 5.39999 5.2875C5.17499 5.5125 4.61251 6.075 4.61251 7.2C4.61251 8.13345 5.15466 8.98945 5.40354 9.38242C5.45461 9.46306 5.49334 9.52419 5.51249 9.5625C5.52641 9.57642 5.56102 9.62481 5.61524 9.70064C5.99908 10.2374 7.36596 12.1489 9.33749 12.9375C10.926 13.5916 11.4279 13.5472 11.8103 13.5134C11.8883 13.5065 11.9613 13.5 12.0375 13.5C12.4875 13.5 13.3875 12.9375 13.5 12.4875C13.725 11.925 13.725 11.475 13.6125 11.475C13.5175 11.0001 13.3423 10.9261 13.1547 10.8469C13.1201 10.8323 13.085 10.8175 13.05 10.8Z" fill="white"/>
</svg>
